<?xml version="1.0" encoding="UTF-8" standalone="no"?>
<!-- Created with Inkscape (http://www.inkscape.org/) -->

<svg
   version="1.1"
   id="svg1"
   width="1175"
   height="746"
   viewBox="0 0 1175 746"
   xml:space="preserve"
   xmlns="http://www.w3.org/2000/svg"
   xmlns:svg="http://www.w3.org/2000/svg"><defs
     id="defs1" /><g
     id="layer2"
     style="display:inline"><path
       style="fill:none;stroke:#000000"
       d="m 469.19474,522.2 c 1.92125,0.22405 -1.35175,-0.0956 1.30112,-0.82192 1.66296,-1.05052 2.61554,-2.76709 3.49771,-4.19504 2.11398,-2.22367 4.52668,-4.07862 6.06932,-5.86238 4.07241,-0.81683 3.80419,-5.80442 6.36401,-8.09785 2.89446,-0.18462 8.52889,1.00335 9.25629,-3.4707 -0.82233,-3.6336 3.09721,-4.86697 3.50423,-8.09012 0.91892,-1.31848 0.13722,-5.87999 0.29767,-5.93278 2.1673,3.69756 3.45115,3.99703 7.21328,3.37808 2.73698,-0.44173 2.92684,-0.74847 4.52704,-1.67155 0.23905,-3.66288 3.31935,-3.34631 1.37693,-6.89831 -1.67494,-2.73828 -4.17653,-5.08539 -6.66907,-7.06676 -0.86866,-3.35228 0.003,-7.57532 0.20059,-11.12784 0.39477,-3.72397 -6.35156,-5.39708 -2.69292,-9.50774 2.18563,-0.93639 -0.62045,-6.8159 3.70818,-6.1076 2.74235,-0.52321 6.53022,-1.92369 5.56359,-5.55349 -0.11155,-2.86917 -2.83415,-3.91789 -5.21923,-4.6145 -2.57509,-0.88714 -6.16626,-1.37267 -9.50576,-1.1747 -1.04846,-0.73449 -3.71198,-1.0522 -4.92474,-3.29165 -1.13919,-1.70734 -3.89663,-3.68239 -4.89105,-4.12473 -3.31427,0.51527 -2.49844,-4.34405 -6.32573,-4.36257 -2.77783,-0.94857 -4.85643,-0.73099 -5.53487,1.9721 -1.67505,2.923 -0.75472,6.47441 -2.09963,9.58872 -0.33896,1.69782 -3.25864,3.35814 -1.49205,4.84062 3.41023,-1.37092 2.42732,5.68186 0.83766,6.50207 -1.19631,1.66636 -2.04687,5.70725 -0.37695,7.31183 2.1169,2.01859 1.70659,7.24769 0.37695,10.13846 -1.39049,2.30201 -2.98671,4.7941 -2.7894,7.82854 -1.12762,3.62705 -2.22573,7.38749 -2.28555,11.27446 0.55051,3.79024 -1.52935,7.53512 -2.34142,10.99875 -0.65471,3.4564 -0.85098,6.99033 -1.30878,10.68831 -1.43789,3.95723 -2.65907,7.49409 -2.93343,11.74363 1.72958,2.25666 2.01912,2.6318 4.20124,3.89212 0.66781,1.04128 1.40043,1.48482 3.09477,1.81454 z"
       id="argentina" /><path
       style="fill:none;stroke:#000000"
       d="m 469.63099,435.16667 c -0.0464,1.7689 0.0679,-0.94128 0,1.35208 -0.33066,1.74334 1.15819,2.78288 2.63691,2.77428 2.32509,0.2305 2.67957,3.32802 3.14554,5.24733 0.29381,2.35988 -2.11722,2.54272 -2.39154,4.15412 -2.18867,2.42418 1.16481,4.45582 0.98198,6.86723 0.18238,1.92543 0.97974,6.50408 -0.44657,8.8342 -1.10688,1.56361 -3.08201,3.15494 -2.58066,5.63594 -0.0492,2.51063 -1.38993,4.7871 -1.55154,7.07641 -0.94479,2.19444 -0.81351,5.06861 -1.42299,7.36058 -0.0186,3.11909 -0.70142,4.95258 -1.7497,7.76829 -0.44072,2.81364 -0.93455,5.60132 -1.30044,8.37604 -0.39462,2.43229 0.30833,5.46753 -1.21046,7.19034 -0.16032,2.63656 -0.81154,4.84494 -1.38551,7.261 -1.12928,2.41747 2.33412,4.26125 1.70309,5.69695 -2.02243,0.19081 -5.39211,1.31446 -5.7708,-1.61526 -1.5612,-2.04826 -2.06873,-4.9993 -3.2607,-7.191 -0.31059,-1.21804 -0.9455,-1.42964 -1.58217,-2.2425 -1.03615,-1.25646 -1.44802,-2.52513 -1.32079,-3.84557 0.16865,-2.02381 1.16123,-3.98502 2.23735,-5.91625 1.29887,-1.97632 0.46047,-5.23189 0.70175,-7.89001 0.0353,-3.86783 -5.28304,-3.95893 -3.8066,-8.22584 -0.22677,-2.62125 2.10907,-3.64519 2.8827,-5.90309 1.01226,-2.67384 0.90922,-5.37253 -0.21407,-7.31937 -1.19344,-2.65082 -2.82453,-6.20542 -3.82504,-8.70447 -0.45689,-3.16309 0.8102,-6.6154 0.97796,-9.90418 1.20778,-2.09511 2.3933,-4.13762 1.76932,-6.95013 1.41892,-2.62773 3.5538,-5.21061 2.91938,-8.02581 -1.27154,-1.63769 -4.45648,-1.71858 -3.43036,-4.82268 0.61802,-1.90872 3.98241,-1.89725 6.00403,-2.59193 2.64173,-1.92275 5.08155,0.23245 6.92637,1.88171 2.22634,1.50966 3.12588,1.56894 4.36356,3.67159 z"
       id="chile" /><path
       style="fill:none;stroke:#000000"
       d="m 513.99291,435.19394 c -0.017,0.49803 -0.49671,1.25769 -0.73619,1.93589 -0.94042,1.61721 -1.33436,1.52271 -0.55943,3.74 -0.0121,1.20658 -0.0264,1.96211 -0.34034,2.80385 -1.10627,1.222 -1.66287,1.65229 -3.19287,2.57461 -2.05027,0.67267 -5.47172,-0.75019 -4.49773,3.8565 -0.1216,2.16203 -2.57113,3.55025 -2.14863,5.29036 0.58325,1.88885 1.54391,2.97698 2.55068,4.07273 1.31321,1.63976 0.93261,3.06509 1.64447,3.83738 0.43807,1.61883 0.85502,3.2249 2.18128,4.14445 0.62708,1.60664 1.10684,2.85087 2.39942,3.70819 0.9889,1.68843 3.46599,0.85165 4.57994,2.63246 2.19376,1.04843 3.87022,-1.08998 5.04501,-2.4992 0.78283,-1.31052 1.17342,-3.19049 2.82438,-3.20523 0.3086,-0.46656 2.61225,-0.71432 3.69219,-1.94499 0.92897,-0.16253 0.3777,-2.5993 2.25725,-1.71378 2.24183,-0.64655 4.15589,-1.02354 6.52681,-1.29217 2.06651,-0.36788 4.62872,0.80112 6.26682,-0.70224 0.78733,-0.49661 2.05721,-1.60736 2.18132,-2.29035 0.68688,-1.71888 1.25551,-3.21332 2.18125,-4.68977 -0.0542,-1.86898 1.56632,-2.26523 2.08406,-3.59272 0.8568,-1.82151 0.50156,-4.17276 0.53348,-6.22307 -0.26234,-2.14121 0.85034,-5.17235 -0.43625,-6.76199 0.25345,-1.89256 -1.36407,-3.28613 -2.61755,-4.36257 -1.98556,-0.74242 -4.06992,-0.95833 -6.03019,-1.65711 -1.66355,-0.76941 -3.73032,-0.0131 -5.5629,-0.34471 -2.12571,-0.0918 -3.99009,-0.61104 -5.96815,-1.04589 -2.07123,-0.49547 -3.82006,-1.79572 -5.9828,-1.92193 -1.33834,-0.52533 -3.34546,-0.85026 -4.98526,-0.33855 -1.09131,1.50935 -3.04145,2.19379 -3.42018,4.40803 -0.20259,0.5849 -0.29993,0.98673 -0.46989,1.58182 z"
       id="uruguay" /><path
       style="fill:none;stroke:#000000"
       d="m 483.3731,386.30585 c 1.77148,0.24335 -1.24414,-0.29409 1.4668,1.31137 0.95227,2.54903 4.07775,3.68693 4.55126,6.63858 0.98635,2.63 0.34262,5.65986 0.5258,8.50118 -1.01946,3.1519 1.42725,3.97195 3.15332,5.16311 2.98357,2.61968 3.17394,5.3117 4.57554,8.37198 0.97523,3.33809 1.91518,6.33932 2.50079,9.83045 1.65816,3.14686 0.58447,6.9775 4.08504,7.09663 -0.14133,2.75377 5.04081,3.65766 8.0648,5.55752 0.66115,-2.78389 2.86911,-8.24304 6.10501,-9.81514 3.71602,-0.0103 7.8007,0.46379 10.77866,2.27882 3.87252,0.75424 7.6421,2.9086 11.86693,2.14742 4.12648,-0.59201 7.35871,1.62488 10.16406,4.17831 2.1305,1.14656 6.45691,4.77216 7.46153,1.89118 3.06844,-0.12451 4.51884,-1.73415 7.91656,-2.33775 1.83376,-0.85435 4.67987,-6.83416 2.1083,-8.24953 -1.24471,-2.38233 1.88517,-2.96953 2.78585,-5.42848 1.17887,-1.9518 2.24086,-6.56859 4.15817,-8.12454 1.70313,-2.24005 4.34405,-3.43974 5.5668,-5.29439 1.4138,-2.78959 3.535,-6.38973 2.23596,-10.14543 -2.2204,-2.92161 -5.41137,-4.97534 -6.64353,-8.25994 -1.70224,-1.38965 -2.83557,-4.99726 -4.64929,-7.05638 -1.12194,-3.16874 -5.55897,0.35449 -8.22314,-0.29922 -4.49211,1.4626 -5.01231,-4.32375 -7.31352,-5.89547 -2.33392,-2.72068 -6.57674,-0.25461 -9.39029,-0.80845 -1.34968,-1.33556 -4.89404,-1.87607 -7.35609,-2.59452 -2.92249,-1.11393 -4.93026,-2.63148 -6.54386,-5.45322 -2.61025,-2.6601 -7.83921,1.22731 -9.1614,-1.74503 -0.73466,-2.83207 -1.16998,-6.60603 -3.49006,-8.50701 -2.981,-0.0117 -5.97126,0.017 -8.94327,0 -1.47816,-1.98587 -3.82773,-2.64276 -5.35213,-1.54613 -2.15786,2.24617 -5.80087,1.96557 -7.13929,4.04492 0.78171,3.83634 -0.44104,7.07122 -2.58207,9.68738 -1.02821,1.29584 -3.31646,2.85264 -5.16714,3.52151 -1.07562,2.99954 -1.13247,6.01875 -3.19724,8.94027 -0.99398,2.13291 -3.06778,1.68851 -4.91886,2.4 z"
       id="brasil" /><path
       style="fill:none;stroke:#000000"
       d="m 482.50059,386.74211 c -1.19523,-2.6e-4 -2.31248,0.75656 -3.98085,1.3633 -1.12381,1.0278 -2.53993,2.21996 -3.70819,3.10833 -2.54912,0.93651 -3.34993,0.93076 -6.00292,0.76345 -4.37906,0.0242 -8.77093,-0.0364 -13.13787,0 -1.54315,1.39797 -2.42452,2.80038 -4.41922,2.73397 -2.15496,-0.12389 -4.86284,1.30288 -6.20696,2.06387 -1.3744,0.32321 -3.70719,1.73 -5.4548,1.53041 -2.08511,-1.47845 -0.72842,-4.68904 -2.38737,-6.39662 -0.70082,-1.97345 -1.92848,-2.82287 -2.69013,-4.51233 -0.81501,-1.62041 -1.87102,-2.72169 -2.61754,-4.5807 -2.22027,-1.9894 2.51674,-2.58221 1.59686,-5.15631 -0.34756,-2.83444 -0.26175,-6.10317 2.40714,-7.7229 1.58913,-2.01108 2.8167,-2.77649 5.55446,-3.27765 1.86611,-1.0355 4.38896,-0.77303 6.36493,-1.51156 2.2854,-0.51652 3.53832,-2.40058 5.88947,-3.27193 1.36125,-1.34706 2.8038,-3.27735 4.17894,-4.10997 0.57985,-2.59598 3.43144,-1.99122 5.6279,-1.91302 1.51199,-0.19352 3.34445,-0.65705 4.582,-0.51219 -0.26358,-1.39656 3.12377,-1.56395 4.1521,-1.97184 1.99116,0.25933 3.10852,-0.96824 4.64282,-1.52785 1.61747,-1.32167 3.88751,1.77194 5.17297,3.27288 1.19004,1.31534 3.0965,1.27783 4.98433,1.09064 2.84655,0.0117 5.69336,-0.0215 8.53964,0 2.08031,1.20659 3.14637,3.5869 3.70819,5.88948 0.20965,2.49436 0.26693,5.14268 -0.87251,7.19824 -0.96383,1.81839 -3.19816,3.3973 -4.79883,4.36258 -1.94782,0.65786 -3.93327,2.72049 -3.49006,5.23508 -0.93881,1.67965 -1.17265,3.60622 -2.37216,6.13487 -1.72469,0.41848 -3.74205,0.48295 -5.26234,1.71777 z"
       id="colombia" /><path
       style="fill:none;stroke:#000000"
       d="m 439.74737,398.73918 c -0.63612,2.22958 0.42443,-1.31052 -0.0783,1.03879 -0.17464,2.22041 -0.84876,5.29274 1.38706,6.15946 2.29095,0.58631 1.50945,3.1546 2.02,5.2165 0.78,2.26697 -4.06731,4.18014 -0.71123,5.90806 2.88196,0.54806 2.49617,4.52668 3.92632,6.32573 0.60002,0.59327 1.80786,2.75548 2.52989,4.08148 1.42135,1.1167 2.65384,3.70584 5.327,3.00505 2.63897,-0.0405 4.94706,-1.7817 8.05821,-1.00991 3.23458,1.27038 0.27583,0.61011 4.80712,3.03026 0.0356,1.62751 1.80906,1.8895 2.94474,3.05379 1.03222,1.22287 -0.58103,3.6896 3.29537,2.77618 0.93853,-2.04277 1.3099,-4.64341 1.60424,-6.81637 0.51928,-2.85296 0.76829,-4.50746 1.75331,-6.81171 0.58768,-1.07906 3.38028,-2.51423 4.68976,-1.3633 2.51996,-0.17457 3.66349,2.45987 4.80498,4.14594 1.15552,0.92002 1.98971,0.54326 2.26662,0.30188 0.8915,0.39373 1.1821,1.12148 2.30794,1.44165 1.0839,1.22859 2.01497,2.41306 3.53521,4.0358 2.5197,1.48041 4.69262,2.61028 7.36695,2.47569 1.55764,-0.0331 3.83469,1.16148 2.98297,-1.54221 0.22272,-2.21061 -3.34515,-0.30547 -2.97869,-3.16972 -0.41949,-2.30061 -2.49393,-4.19626 -1.92189,-6.83593 -0.56393,-2.47721 -1.4707,-4.05702 -2.18161,-6.33724 0.31792,-2.62917 -1.34203,-4.69441 -2.45698,-7.12232 -0.86712,-2.25575 -2.09409,-3.71308 -4.37792,-4.64446 -2.54413,-1.6978 -1.19059,-5.05509 -1.43818,-7.62717 0.061,-2.61866 0.70076,-5.77801 -1.59681,-7.44872 -0.9058,-2.04697 -3.85765,-2.63138 -4.02223,-4.26427 -1.66953,-1.03804 -2.93763,0.64778 -4.57381,1.00952 -1.43966,0.69125 -2.18864,2.16737 -3.54963,3.42136 -1.57246,1.33955 -4.37244,0.34621 -6.44123,1.07984 -4.40952,-0.11251 -8.83908,0.008 -13.24427,-0.13549 -2.30544,1.63403 -3.2627,2.62718 -7.45432,2.5807 -3.18343,1.69628 -4.06523,2.17251 -6.04566,3.36644 -2.21087,-0.011 -2.65734,0.6747 -2.53494,0.6747 z"
       id="peru" /><path
       style="fill:none;stroke:#000000"
       d="m 917.7295,460.09867 c -7.03197,-2.28488 -9.72525,4.94118 -9.43066,10.83986 -1.86388,4.42231 2.354,14.04771 6.85217,7.47365 0.42644,-4.00196 5.18066,-6.03488 4.67378,-0.57082 3.97406,4.07467 10.07306,-5.59368 10.24443,2.14738 0.78417,5.47838 7.94803,9.40277 3.5986,14.86838 4.71301,1.75461 9.37329,8.57699 14.78159,4.57709 4.12413,-4.09251 6.15994,-11.05984 13.21818,-9.1995 6.96603,-0.43778 6.11788,-11.79109 12.97656,-10.54753 1.57677,-5.92164 9.73409,-9.31754 4.99829,-16.4219 -3.67843,-6.16052 0.3595,-12.66342 0.25033,-19.10196 1.57568,-4.78162 -2.31845,-14.40011 -7.09947,-7.16698 -4.26472,3.02608 -4.6826,12.6467 -11.96899,8.55877 -4.36583,-3.6495 -0.0301,-9.87607 0.563,-12.68981 -5.69706,-4.46214 -7.66372,6.74282 -13.72457,4.00398 -3.21681,-4.74317 2.53259,-7.58196 5.69575,-9.3788 -2.75071,-5.9881 -8.94651,0.11809 -12.28934,2.56335 -1.77419,4.99682 -4.65533,9.47345 -8.19818,13.39845 -4.07499,3.99936 -11.52564,4.28371 -13.16294,11.00466 -0.72001,1.89303 -2.56072,3.45733 -1.97853,5.64173 z"
       id="australia" /><path
       style="fill:none;stroke:#000000"
       d="m 831.81768,467.65644 c 3.874,1.86748 9.35395,0.30811 8.99185,-4.74952 2.58768,-2.91072 4.05983,-7.53651 7.30617,-9.30466 5.09463,1.36048 9.23226,-3.4318 14.20974,-2.49639 4.84526,0.24178 8.22494,6.7538 2.34539,8.66536 -4.76831,2.51315 -2.45969,8.49666 -3.6516,12.78262 -0.0923,4.19653 5.61628,11.57705 -0.15229,12.52131 -4.71212,1.93933 1.00525,4.40465 -1.29606,6.90028 2.82739,4.89881 -1.6869,10.39481 -7.71823,10.91266 -3.62465,3.23937 -3.22092,8.73657 -2.64681,13.13785 -2.034,2.55077 -6.4122,2.19926 -6.80353,6.39577 -4.68693,4.37296 -6.19446,-4.526 -9.47983,-6.4084 -3.10458,-3.18321 -4.96613,-8.02737 -2.86326,-12.31208 3.31426,-4.1744 5.01877,-9.79698 3.84214,-15.07726 -1.62418,-5.0638 -3.4135,-10.02597 -2.73022,-15.48873 0.21709,-1.79563 -0.54894,-3.9569 0.64654,-5.47881 z"
       id="madagascar" /><path
       style="fill:none;stroke:#000000"
       d="m 776.01337,475.02012 c 6.7374,1.45544 13.25808,2.96697 19.89482,2.38175 4.25417,1.04359 17.57441,-3.15079 12.44334,4.25883 -4.39658,5.11249 -6.01786,11.51212 -5.74215,18.16496 -4.17223,7.43356 8.93712,13.01457 1.8491,19.10241 -0.19809,5.70342 -2.02258,9.94621 -7.03796,12.73506 -2.53736,11.14447 -13.34996,2.04184 -17.2201,-3.29985 -6.48444,-2.98333 -14.64121,-3.28537 -18.54233,-10.69486 -4.32807,-6.40229 -4.88066,-14.21538 -1.92289,-21.28921 5.27683,-4.46348 11.57197,-10.5239 15.08644,-15.58867 0.68881,-1.3287 -0.0625,-4.78084 1.19173,-5.77042 z"
       id="sudafrica" /><path
       style="fill:none;stroke:#000000"
       d="m 733.10391,452.69514 c -4.90591,3.57345 -10.54328,6.34016 -12.92134,12.34237 -4.68034,4.60283 -12.87658,4.81776 -13.11372,13.15006 -4.04532,8.93075 8.24442,4.96857 12.10034,8.3002 4.23705,3.70384 11.10763,9.78254 13.88543,1.52046 4.14938,4.48604 5.89531,11.77606 11.73969,15.52389 4.70049,6.88071 12.9593,3.3019 13.90296,-4.41828 2.06352,-6.37251 7.59955,-6.08132 10.6489,-11.60215 5.53034,-5.32322 9.46173,-16.70926 -0.0621,-16.93767 -7.61849,-0.10518 -12.49119,-6.48294 -17.44409,-11.42223 -3.98885,-6.83258 -11.51641,-8.28765 -18.73611,-6.45665 z"
       id="zaire" /><path
       style="fill:none;stroke:#000000"
       d="m 751.65431,429.2913 c -2.51639,3.18852 -11.84418,5.39436 -15.32281,16.08349 -3.43756,6.2243 -5.84601,8.9353 -0.13722,6.3494 11.07468,-0.11958 13.95827,6.19936 18.80435,10.6258 5.19641,4.42378 11.13474,8.66833 18.09227,9.47282 -0.0799,3.73134 11.26251,4.95254 17.39039,6.01349 5.8236,0.004 11.62012,-0.82486 17.4548,-0.49162 3.32851,-3.87197 8.90913,3.09352 10.75517,-3.17424 2.35457,-6.0396 3.32195,-14.6947 -2.93318,-18.46854 -6.13061,-2.9299 -11.87998,-6.59222 -18.0275,-9.48485 -4.7155,-4.1304 -9.42166,-9.19335 -16.0345,-9.81773 -5.59333,-2.03714 -11.4032,-2.41572 -17.44875,-4.01043 -4.25651,-0.2825 -7.59866,-3.3353 -12.59302,-3.09759 z"
       id="etiopia" /><path
       style="fill:none;stroke:#000000"
       d="m 737.57688,417.99108 c 0.88564,8.75392 9.21918,10.12602 16.48045,11.23133 7.57165,2.03203 14.80075,5.50831 22.79569,5.62352 9.13495,0.33411 15.91715,6.46626 22.08179,12.49382 5.59378,3.47558 12.09775,5.09432 17.74596,8.49287 7.98736,4.325 12.22541,-7.15864 18.14475,-10.49398 0.815,-5.67708 8.28627,-12.91722 5.24868,-17.51781 -4.49824,1.99796 -8.53047,0.74202 -13.33883,1.63621 -6.77188,-3.19209 -5.09446,-13.01974 -10.49596,-17.48133 -5.1539,0.64957 -12.1265,-1.3714 -9.27979,-7.93563 -2.65974,-5.92035 -8.43331,0.89416 -13.32447,-1.11983 -4.71985,2.01331 -7.00237,9.72699 -14.10367,7.66297 -5.59613,1.91138 -10.52648,4.26159 -16.60708,1.96165 -4.82486,3.11835 -11.23146,-0.58151 -15.63038,2.97837 -2.97991,2.0051 -6.25635,2.34992 -9.71714,2.46784 z"
       id="egipto" /><path
       style="fill:none;stroke:#000000"
       d="m 688.41404,407.68246 c 4.04791,1.63665 8.01349,2.25381 10.46377,-1.9364 5.66942,-2.12918 7.80227,11.76412 13.05315,4.23518 3.68067,-5.36922 6.54587,4.88041 11.57607,1.42493 5.9318,-2.2274 6.84129,6.21814 12.78625,5.87395 2.46516,3.61673 2.55253,7.27836 7.50327,9.59849 2.3306,1.34282 11.72047,1.86328 5.33309,5.14172 -5.83739,1.26973 -8.72444,6.20752 -11.26369,11.0382 -2.74548,5.42734 -5.09382,11.04551 -10.95905,13.75634 -4.68733,3.62449 -7.00448,9.84977 -13.12418,12.00526 -5.50065,1.32887 -6.89446,6.88216 -6.91031,10.01218 -0.47042,9.05119 -10.82105,3.18954 -13.65954,-1.56681 -5.98568,-3.32488 -9.17476,-9.00645 -11.59789,-14.6323 -2.4933,-3.67734 -8.09798,-2.27663 -9.26947,-7.72998 -3.53009,-4.21078 -10.34994,-10.74032 -2.90867,-14.28334 -0.33496,-4.65952 -1.2947,-9.28325 4.41386,-11.00406 5.76957,-3.85563 -2.01297,-14.48386 5.74312,-17.01585 2.46774,0.6917 4.44875,4.01246 4.93587,-0.68028 1.12468,-1.55288 2.33892,-3.07952 3.88435,-4.23723 z"
       id="sahara" /><path
       style="fill:none;stroke:#000000"
       d="m 350.20789,316.75007 c 1.43114,0.65868 1.5449,0.90274 3.54396,1.94713 1.26077,0.22663 1.39033,0.39925 3.85605,-1.59019 0.98011,-2.46452 1.85453,-2.9697 4.04941,-4.41958 1.85096,-2.33671 5.02505,-2.81453 7.85263,-3.381 3.06464,-0.67751 6.43067,0.0513 9.56585,-0.77481 3.83311,-0.75869 7.75973,-0.68208 11.7017,-0.64302 1.39309,1.71657 2.30702,4.6903 3.35767,6.11251 0.90056,1.61199 2.09738,3.25737 3.51338,4.13953 1.74155,2.60854 5.76783,0.72356 8.28889,2.07223 1.86193,1.93134 1.83966,5.19021 3.68959,6.88303 2.74537,0.46349 6.44969,-0.74305 6.99871,3.15088 -0.16136,2.94261 1.17522,5.81875 2.50848,8.17983 2.31109,2.42328 6.44173,1.60861 8.07076,5.01696 0.76074,2.92363 1.66064,5.81524 2.29035,8.61608 1.86406,1.59644 2.05691,4.37549 1.74503,7.08918 3.29679,0.3432 3.54819,3.51237 4.80936,6.37086 1.21517,0.99785 0.26329,2.6771 -0.55585,3.66306 -0.95447,1.29288 -2.69282,2.0229 -4.25351,2.50848 -2.39782,-0.31341 -4.26663,-2.52212 -5.74386,-4.30339 -1.75637,-2.1261 -3.99848,-4.02548 -6.90579,-2.97066 -3.10888,0.90682 -4.38144,-1.87379 -6.32963,-3.52472 -2.31031,-2.03997 -5.91397,-1.96303 -8.17774,-3.59772 -2.06381,-0.26389 -4.30447,-3.83279 -7.19824,-4.14445 -2.53333,-0.76103 -5.75954,0.68259 -7.85263,-1.30877 -1.32211,-2.48544 -3.64478,-4.60483 -5.01696,-6.87105 -0.20838,-3.37566 -2.5843,-5.57752 -5.9369,-5.57054 -3.47973,0.28611 -6.29448,-1.33555 -9.33211,-2.71835 -2.39544,-1.64964 -5.66246,-2.84869 -8.50702,-1.41784 -3.22911,1.68203 -5.73315,-0.44915 -7.52543,-2.83567 -2.01488,-1.94952 -4.66197,-3.11932 -6.21667,-5.01696 -1.8513,-1.94005 -0.71777,-3.89203 0.008,-6.84799 0.67753,-1.62574 -0.20832,-2.37522 2.02591,-3.60855 z"
       id="mexico" /><path
       style="fill:none;stroke:#000000"
       d="m 353.73966,279.59519 c 0.53207,0.38498 8.19041,4.32645 12.99431,6.06142 2.66046,0.64431 8.0902,2.48559 12.55966,3.07392 4.26992,1.92272 8.79582,2.81221 13.47774,2.37478 3.83452,0.91535 9.95937,-0.0959 11.57107,4.41138 0.17411,5.60678 -6.79833,7.3043 -10.0279,11.01232 -6.04667,2.82132 -12.90865,1.05579 -19.30188,2.24227 -4.82244,0.60221 -12.46615,1.17404 -15.65728,5.62738 -3.66385,6.48771 -4.46794,4.21499 -8.65568,2.52094 -3.2111,-1.43162 -7.06317,6.58192 -4.54499,9.58453 0.39202,0.32667 -6.84644,-1.93166 -10.61022,1.59547 -1.15138,4.90519 3.89648,9.21932 8.54153,9.16717 5.02603,-1.24635 8.39939,1.45988 11.35312,4.983 3.15518,4.24051 7.84541,5.98271 13.01725,5.76835 4.24783,0.14254 5.44944,5.00984 8.48984,7.12754 2.60646,2.89403 2.86078,8.31429 -2.25973,7.66479 -4.17868,-1.50254 -4.31187,-8.40689 -9.88071,-5.03504 -4.10466,0.56735 -8.11518,1.16214 -12.25767,1.42562 -4.38876,-2.06189 -6.51992,-7.60088 -12.02748,-8.5296 -5.12416,-2.48718 -9.86198,-6.26647 -15.74054,-6.64622 -2.91129,-0.36336 -9.82553,-0.008 -9.94409,-0.32956 1.22076,-4.48068 -4.40902,-1.03952 -6.76114,-3.42012 -5.05595,-1.54893 -10.45859,-0.69437 -15.61237,-0.0846 0.33787,-4.33492 4.39175,-7.0652 6.37375,-10.66979 3.77883,-3.30549 3.8615,-8.35993 6.02503,-12.98045 -0.16161,-5.24059 4.74687,-9.32107 6.36811,-14.24434 2.7364,-5.57727 7.6706,-11.75901 14.54576,-11.31268 7.11003,-1.49746 13.93574,-2.47933 20.35509,-6.264 2.45257,-1.75641 3.48182,-1.30996 5.85494,-3.21572 0.42416,-0.34062 1.18202,-2.32295 1.75448,-1.90876 z"
       id="california" /><path
       style="fill:none;stroke:#000000"
       d="m 232.30702,311.05146 c 3.90809,-2.17604 9.18196,-3.90894 11.12456,-7.85263 1.19843,-2.54127 1.5031,-5.33585 3.0538,-7.6345 2.16279,-3.56841 6.37381,-4.73579 10.03392,-6.54386 4.37742,-1.36604 8.44399,-4.8372 10.67376,-9.11996 1.83109,-4.20632 5.14853,-7.97507 9.39407,-9.85723 3.16307,-2.57692 7.42626,-4.86981 11.48934,-5.33032 5.84139,0.0355 11.73821,0.28592 17.54576,-0.0655 4.24045,-1.18189 8.16343,-3.13032 11.97309,-4.20187 3.04191,-0.67915 6.69641,-2.09274 8.7254,-3.73686 3.12833,-0.34967 9.14926,-3.26246 10.46298,1.19011 0.57541,1.78728 1.55447,3.70705 3.06074,6.47307 2.24498,3.0732 3.56397,8.53431 6.89704,9.39297 2.71957,0.77473 5.40498,1.03638 6.23621,4.05913 1.27007,4.84779 -4.88346,5.36401 -7.50922,7.24128 -3.28226,0.99351 -5.85912,2.74951 -9.33221,3.5189 -4.11281,0.55882 -8.14281,1.64033 -12.32638,2.17274 -3.3606,0.009 -6.88315,3.00398 -8.39584,3.93486 -2.79029,3.40918 -4.18048,7.92708 -6.54386,11.77895 -1.46097,3.6595 -3.13691,6.33365 -4.36258,10.25205 -1.30291,4.39454 -2.9486,8.94016 -6.1076,12.2152 -1.33791,2.18949 -3.78972,6.8055 -5.88947,8.94328 -1.08586,2.43945 -2.46521,5.91963 -5.89773,5.649 -3.56675,1.36865 -8.17926,0.64519 -12.16094,-0.47141 -4.33866,-0.78607 -8.37806,-0.9878 -12.48982,-2.82643 -3.28859,-0.86197 -6.57712,-3.19746 -6.46624,-6.43364 -0.58992,-3.26883 1.02808,-7.80296 -1.59405,-9.65963 -0.61585,-0.20218 -4.06866,-2.9123 -1.82552,-1.21941 -1.88131,-3.91564 -2.83394,-3.06917 -3.23519,0.6995 -0.87128,4.23622 -1.83064,8.00496 -7.10504,6.40939 -4.44918,1.15045 -1.97045,-4.62701 -2.82814,-7.17112 -1.01081,-3.68594 -1.646,-8.75975 -5.5102,-10.06105 -0.84254,0.21596 -0.56469,-1.32959 -1.09064,-1.74503 z"
       id="oregon" /><path
       style="fill:none;stroke:#000000"
       d="m 358.14586,226.57893 c 0.2435,3.41217 3.51493,4.69924 4.47297,7.55777 3.24481,3.49864 5.95668,6.80314 5.24417,11.8765 1.27253,3.74739 -2.53932,10.28982 2.62208,11.56802 2.72,1.43722 6.64357,0.65668 7.89148,4.61962 1.84102,2.15991 5.40595,0.41755 7.91815,1.08727 4.03015,0.0205 10.35942,0.94599 13.8045,2.39072 3.28146,1.59361 2.87062,2.81227 6.16961,4.70433 3.35115,1.93459 6.97494,2.28542 10.87637,2.60528 3.35809,0.1774 7.71986,0.79484 10.56303,-0.60016 3.28683,-1.4198 6.25383,-2.94942 9.67794,-3.80139 3.35183,-2.38366 7.27773,-0.0298 5.15379,4.12531 -4.53309,3.17383 4.59688,4.31572 2.24627,8.67902 -1.4274,2.20206 -1.86614,4.22619 -0.095,5.58143 3.85278,2.55753 0.79909,6.19484 -0.81889,8.80287 2.11671,3.8835 -1.77854,6.91967 -5.73134,7.35264 -4.80054,0.80233 -3.07683,-5.09897 -1.94954,-7.4496 -1.79706,-2.67682 -2.03125,-6.60504 -6.53317,-6.06438 -3.46586,-0.28741 -7.42433,1.7964 -10.43326,-0.41371 -3.07474,-4.09733 -4.61049,0.20145 -6.39011,2.64977 -3.67457,2.32539 -8.83292,2.51578 -13.04416,1.052 -2.96788,-1.60754 -6.55953,-1.59772 -9.94663,-2.14064 -4.10526,0.38264 -7.82093,-1.16198 -11.64587,-2.10982 -3.61184,-0.39559 -7.22676,-1.72148 -10.64371,-2.69035 -2.4562,-0.91696 -4.0298,-1.69379 -6.32385,-2.62209 -2.33474,-1.63803 -6.04069,-1.87932 -7.40353,-4.31873 -0.66026,-2.63975 -2.63338,-4.778 -5.24417,-5.24416 -3.12483,-0.97613 -6.10753,-3.00676 -7.21832,-6.02547 -1.07973,-3.20409 -4.84168,-9.37696 -6.2663,-12.74317 1.19816,-2.9027 1.17411,-4.06624 2.07084,-7.45221 1.63723,-4.22996 6.25355,-4.74294 7.55777,-8.79169 2.129,-3.01484 0.69183,-7.17566 2.00512,-10.17986 2.5672,-2.80453 6.29878,-1.93391 10.17986,-2.3136 0.28183,-0.53634 0.89319,0.38308 1.23392,0.30848 z"
       id="nuevayork" /><path
       style="display:inline;fill:none;stroke:#000000"
       d="m 405.82836,208.64006 c 2.47488,-0.0971 5.05508,0.16644 7.35234,-0.77156 1.88248,-0.16343 3.56393,-1.48079 4.7538,-3.04569 1.80098,-1.1553 4.47999,-0.45129 6.52243,-0.0579 2.10162,0.0837 3.82049,-0.44625 5.91091,-0.26934 1.63469,1.03036 2.04271,3.4023 2.94473,5.12603 0.92969,1.52889 1.80245,3.82372 3.59461,4.15374 1.57609,0.10445 2.95665,0.28144 3.27645,1.8448 0.48709,1.96024 0.12724,4.19888 1.17862,5.89302 1.98939,0.7215 3.42122,-0.51198 5.25617,-0.65794 0.75926,1.41081 0.31867,3.75702 0.41904,5.74546 0.42349,2.45998 2.0883,4.42116 2.74383,6.90601 1.00467,1.13824 2.40426,1.71536 2.29035,3.38099 -0.0798,1.98282 0.98289,4.91688 -0.32719,6.4348 -1.55953,1.57629 -3.86795,1.90943 -5.61916,3.17819 -1.60111,1.67776 -3.65558,1.68464 -5.85926,1.51603 -1.95557,-0.11743 -4.36287,0.44802 -5.86281,-0.54978 -1.35402,-0.6037 -2.55935,-1.01138 -4.18857,-0.76746 -2.29482,-0.64159 -3.93773,0.82817 -6.48306,0.0401 -2.38461,-0.26747 -3.95557,-2.77067 -5.66277,-3.75941 -2.31864,-0.0174 -4.44098,0.40152 -6.71648,0.71506 -2.48252,0.33805 -4.95844,0.2518 -6.72737,-1.74925 -0.85559,-1.33262 -1.50726,-2.41076 -1.77868,-4.13288 -0.4238,-2.17579 -0.9241,-3.06465 -0.94424,-5.17889 -0.40648,-1.85923 -0.40129,-4.18878 0.76345,-5.78041 0.67232,-1.98966 0.94564,-4.39103 2.6887,-5.87028 1.35509,-1.18685 1.15591,-2.84362 1.12855,-4.44123 -0.1448,-2.28798 0.54889,-4.77504 -0.67676,-6.82159 -0.0986,-0.35526 -0.0234,-0.72518 0.0224,-1.08064 z"
       id="labrador" /><path
       style="fill:none;stroke:#000000"
       d="m 358.38538,226.41754 c 2.27147,0.91948 2.97965,-0.80893 4.83683,-2.41203 1.75427,-1.75038 4.17193,-1.65951 5.57748,0.62541 2.32623,2.32288 6.02137,2.00495 8.23569,4.2951 0.37499,1.51531 4.40445,2.28947 6.432,1.29834 2.04506,-1.30523 5.04537,-0.77663 5.23788,1.86453 1.23396,2.68259 5.19163,2.2906 7.79928,2.72661 1.96281,-0.007 4.3732,-0.19928 5.39751,1.74503 0.66513,2.40702 1.30981,4.9321 3.70818,6.21666 2.31201,1.64096 5.37638,0.77775 8.0577,0.98158 1.87269,0.23139 4.22979,-0.82385 5.24815,1.19971 2.29014,1.29516 4.7166,1.59772 7.20809,2.22663 2.4146,-0.91677 5.45878,-0.80614 7.40653,0.39091 2.41296,1.03973 4.49334,0.97424 7.1891,1.38738 2.31268,-0.57139 2.87657,0.77926 1.72249,2.21009 -0.14108,2.45774 -1.77745,4.0698 -2.1496,6.21832 -0.29014,2.59298 -0.56872,5.12132 -0.85647,7.76893 0.34215,2.5807 -3.15595,2.75634 -4.81488,3.73736 -1.12679,0.61754 -2.55857,0.93781 -3.49005,1.3633 -2.28405,1.34354 -4.27831,2.07431 -6.8321,2.41082 -3.31061,0.193 -6.70305,0.0766 -10.07287,0.0977 -2.42749,-1.07787 -5.10124,-1.66138 -7.30731,-2.94473 -1.93482,-1.3516 -4.49336,-2.30178 -6.21667,-4.14445 -2.14031,-0.76425 -4.35812,-1.44445 -6.67563,-2.02563 -2.74915,-0.34832 -5.42553,-0.1494 -8.16265,-0.5869 -2.58387,-0.49097 -5.37989,0.22382 -7.62897,-1.42285 -1.49125,-0.84634 -2.403,-2.21114 -3.81725,-3.0538 -1.7221,-0.95786 -3.91851,-0.92165 -5.56228,-2.07222 -1.18368,-1.37201 -0.89255,-3.91266 -0.87252,-5.9274 -0.01,-3.51374 0.0155,-7.02867 0,-10.54131 -2.23025,-1.39158 -2.88442,-3.77669 -4.90789,-5.34416 -1.06891,-2.47622 -3.33231,-4.23115 -4.36258,-6.76199 -0.20694,-0.48702 -0.79067,-0.91148 -0.32719,-1.5269 z"
       id="terranova" /><path
       style="display:inline;fill:none;stroke:#000000"
       d="m 290.74287,189.40703 c 4.48734,0.50578 12.3674,-1.77585 12.03074,4.62721 0.97421,3.64705 3.08043,7.48195 1.69665,11.25953 -1.57262,2.90965 -3.07689,5.34223 -2.3888,8.65959 -1.04966,4.62612 -0.22715,8.22144 3.39089,11.73931 2.09343,4.42451 4.5046,5.37617 7.3953,8.66991 5.06943,1.68069 3.51523,9.11234 4.40455,12.11334 0.14041,4.22475 3.63142,6.04832 6.78657,8.02049 1.61194,2.15974 4.60748,2.56862 7.6933,1.25023 3.85589,-0.56567 4.75304,-2.63849 4.80016,-6.18591 0.67298,-3.26362 3.06637,-6.40152 5.86113,-8.0205 3.34135,-2.75911 3.93773,-7.75415 3.65187,-12.0451 1.31768,-3.17416 5.81883,-3.78173 9.19177,-3.80661 2.86969,0.16163 7.03417,0.89556 8.19338,-1.76859 2.32136,-1.82316 3.27496,-5.82024 6.10926,-7.82934 2.31989,-1.81033 3.30693,-4.57404 5.60827,-6.20048 4.52475,-0.002 9.69781,3.14121 11.66664,-3.20817 2.4017,-2.44603 2.52744,-6.62733 -2.3136,-5.86113 -3.44694,-2.76839 0.13128,-8.86156 4.31872,-8.48322 2.95092,1.03898 9.97626,-1.93601 5.24417,-3.856 -4.37494,1.10959 -7.07058,-5.38616 -3.0848,-7.40353 3.223,-1.58531 1.45214,-6.03204 5.70689,-6.01537 3.22547,-0.28219 4.49057,-3.40181 2.29704,-4.86723 -2.9108,-2.31725 -7.27789,-1.35643 -8.66482,-5.77605 -2.1356,-1.4512 -2.97674,-7.78269 -7.05113,-5.86043 -2.91271,0.21744 -8.72431,2.27453 -8.38035,-1.99831 -0.45563,-2.14275 1.43407,-6.59727 -1.60818,-6.70996 -4.79522,-0.26784 -9.39418,0.8566 -14.02122,1.48681 -2.99234,0.67419 -4.29979,1.80151 -4.44501,4.79823 -3.08666,0.46404 -6.99941,-3.51266 -7.48321,1.65203 -0.98977,3.9271 -6.47644,3.26961 -8.17474,0.61696 -3.08334,-1.17157 -8.69504,-2.14363 -10.79681,1.5424 0.65808,3.78186 -6.9617,6.81608 -7.40354,2.46784 2.97677,-4.57781 -1.92832,-6.96434 -6.01537,-6.32385 -1.59843,0.57044 -7.3909,1.97834 -5.62791,5.14427 2.23479,1.31127 4.92779,6.99414 1.15495,7.50343 -3.74767,0.68938 0.0525,6.61228 -3.03592,8.4893 -3.96774,2.05206 -9.16749,0.0247 -13.00507,2.30752 -1.59541,2.73424 -3.02612,5.85908 -4.64288,8.88029 -1.41982,1.461 -1.1002,2.72454 0.94111,0.99109 z"
       id="canada" /><path
       style="display:inline;fill:none;stroke:#000000"
       d="m 270.38316,196.34784 c 0.0638,-1.84766 -0.20531,1.42429 0.15424,-1.23392 0.95956,-2.29741 3.24672,-3.90135 6.04847,-3.6 4.07014,1.53967 6.44826,-2.40674 10.2056,-2.15628 4.59073,0.29309 9.22639,0.18571 13.82278,0.20363 1.99626,2.08541 2.54912,5.04721 3.23905,7.86625 1.097,2.76403 2.05229,7.20348 -0.39817,9.53717 -1.79171,3.13615 -2.46188,6.58934 -2.24701,10.31075 -0.21017,3.32368 1.7049,5.63565 3.72486,7.91533 3.09655,0.74922 3.02715,4.85778 5.24417,6.63233 1.3869,3.05028 5.19396,2.42297 6.01537,5.86113 0.49139,3.00936 -0.0723,5.96359 1.5424,8.63745 -0.008,2.27529 1.0048,4.0191 2.93056,5.39841 1.42233,1.25837 2.87459,2.0992 4.47297,3.23905 2.65013,1.23514 -0.39675,3.44654 -2.86461,3.699 -2.66747,1.20733 -4.81754,2.20862 -7.50531,2.75342 -3.51057,1.14414 -6.02492,2.17623 -8.37414,2.97575 -3.57064,0.6062 -7.08624,0.53147 -11.17281,0.30369 -3.48311,0.0499 -7.04582,-0.13896 -10.33984,0.44799 -3.0105,1.41717 -6.10269,2.92468 -8.63745,4.78145 -2.35479,1.41237 -5.6944,5.26915 -8.17473,2.15936 -1.90662,-1.12399 -4.4101,-2.63303 -5.86113,-3.70176 -1.81874,-1.09737 -3.38264,-1.91716 -4.47297,-3.70177 -2.45912,-2.83859 -0.62,-6.00103 0.46272,-8.79169 1.91767,-3.27066 0.34874,-7.25962 -2.37015,-9.68362 -2.51842,-2.59263 -1.24798,-6.24109 -0.71612,-9.28353 0.0722,-3.21241 1.80005,-3.87574 4.46994,-2.09025 4.01363,1.11869 6.47022,-2.09013 7.09954,-5.62617 2.13349,-2.7472 0.19259,-5.33559 -1.07968,-7.40353 -2.07803,-2.23319 3.46972,-4.60101 0.15424,-4.16449 -2.66202,-0.51981 -6.06874,-0.60095 -4.80341,-4.46494 -0.10239,-2.17074 -0.26611,-5.45063 2.18011,-5.79143 2.73056,-1.11947 5.9104,-1.26577 8.48443,-3.16253 1.61882,-1.15334 5.61025,-4.80774 2.77633,-6.32385 -1.45141,-0.34049 -2.66495,-0.45487 -4.01025,-1.5424 z"
       id="yukon_" /><path
       style="fill:none;stroke:#000000"
       d="m 240.15207,222.2602 c -1.03175,0.026 0.38872,0.3333 -1.40401,0.86486 -1.98121,0.38921 -5.97072,2.2778 -7.58284,4.77536 -1.79685,1.79672 -3.11459,4.17019 -4.58629,6.39052 -1.22774,1.42527 -3.17203,3.9879 -4.06577,6.2095 -1.47717,2.78796 -3.26392,5.07288 -4.57168,7.82636 -1.49092,1.56111 -2.64082,4.27433 -4.47297,4.47297 -4.06504,1.62887 -1.43907,6.0823 -1.69664,8.94594 -2.61648,1.2574 -3.45769,3.58927 -3.71724,6.48456 3.15161,2.19651 -0.80353,6.73382 -1.52693,9.71066 -0.043,3.77987 -0.37759,7.47114 1.00256,10.87394 -0.47923,3.90324 3.39295,4.86661 6.55521,5.47553 3.65008,1.14715 1.04646,6.549 5.1509,6.86911 3.02098,0.16471 7.44104,-4.0734 7.96398,0.80481 -0.0711,2.66192 -1.10485,7.63371 1.69218,8.67555 2.98822,0.61908 7.2903,-0.8269 9.28939,-2.38715 3.16399,-1.71818 4.77307,-5.29247 6.57808,-8.19759 0.79636,-2.87421 1.27933,-5.87222 3.72715,-7.54256 2.5002,-2.23586 6.03801,-2.67717 8.78559,-4.39178 1.86763,-1.5741 5.26995,-1.42745 6.61305,-3.60537 1.46577,-2.04306 2.00385,-4.21407 3.71147,-6.66616 1.41448,-1.67333 5.31684,-3.95095 0.23707,-5.57085 -2.44746,-2.47649 -5.07813,-3.01841 -8.01034,-5.62588 -1.97919,-1.43992 -2.77596,-2.92529 -3.40396,-4.14381 0.9475,-2.93675 2.08892,-6.0798 2.05309,-9.33806 1.14838,-3.266 -0.83246,-6.51083 -3.82247,-7.62018 -2.97681,-0.63148 -6.24814,-0.49963 -7.24929,-4.31873 -1.57683,-2.50515 -3.12436,-6.94036 0.15424,-8.63745 2.84311,-0.8169 6.28804,-5.28429 3.36765,-7.60263 -2.19881,1.11815 -3.67207,3.29581 -6.50478,2.77492 -1.82183,-1.53746 -2.5859,-3.74509 -4.2664,-5.50639 z"
       id="alaska" /><path
       style="display:inline;fill:none;stroke:#000000"
       d="m 465.92281,127.16901 c 0.1858,0.0462 4.88904,-1.02319 7.19824,0.43625 3.69981,2.12168 8.61162,3.72727 12.67199,5.79655 4.08864,1.94681 8.65693,5.42254 11.97655,7.29117 1.25976,0.35702 7.64722,1.86387 10.25205,3.92632 3.82223,2.03084 7.32433,5.18653 10.90643,7.41637 2.5368,1.86924 5.07641,3.26649 7.77491,4.76475 2.33286,2.5205 7.34256,3.03708 7.05784,6.79607 0.6863,4.07246 -4.78792,7.93813 -7.6345,4.5807 -2.16774,-0.86738 -0.71782,3.89092 -4.36258,3.27193 -5.03032,0.47763 4.53168,3.73916 0.65439,5.88948 -3.11885,2.12667 -9.55119,-1.27037 -7.6345,5.01696 0.61628,2.95638 4.33313,7.98906 1.30877,10.03391 -3.73495,3.83822 2.81751,9.09413 -0.80045,13.13138 -4.37357,0.42248 -3.70224,5.32839 -2.04338,8.36248 2.08677,2.40445 3.11791,7.97171 1.00307,11.02147 -2.7745,2.52641 -6.64265,3.45073 -9.29945,6.45698 -2.72733,3.42603 -0.85328,8.0671 -1.72244,11.92246 -0.2728,4.55771 -4.88526,5.97737 -8.51396,5.1643 -3.36531,-1.35667 -5.27582,-4.37017 -5.88947,-7.41638 -1.77133,-3.83088 -1.39102,-10.58708 -7.41638,-8.50701 -4.17987,0.94792 -1.97476,-4.98647 -6.65074,-4.1111 -2.32515,-2.07786 -6.29625,-2.83994 -4.97712,-7.28799 0.76234,-4.70309 2.1078,-9.08913 2.57838,-13.9761 0.12759,-5.07616 -0.33322,-11.2094 -4.69262,-14.32423 -5.32196,-0.52904 -8.13086,-5.66525 -11.60974,-9.00668 -3.76334,-2.09546 -3.85388,3.41384 -7.58558,2.68095 -1.24079,-3.78046 -4.24838,-3.74992 -7.69501,-3.49006 -2.43271,-0.32156 -5.71379,0.68697 -7.574,-0.43626 -1.73576,-2.41722 -3.43685,-7.32041 -0.43626,-8.07076 5.41808,-2.82844 4.54996,-7.21907 2.76953,-12.05448 0.9562,-3.12853 5.61108,-3.88379 8.79129,-5.17768 3.86656,-1.19645 13.27575,1.35256 11.34269,-5.01696 -5.31009,-2.94355 -1.63484,-8.19127 -1.5269,-12.65146 -0.18083,-3.86637 2.6041,-4.57827 6.1076,-5.45322 3.33219,-1.09004 3.66683,-4.08981 5.67135,-6.98011 z"
       id="greolandia" /><path
       style="fill:none;stroke:#000000"
       d="m 550.44766,248.12135 c -1.01293,-0.87715 -1.56595,-4.29978 1.41606,-3.959 3.09641,0.36607 7.81725,2.51233 8.46854,-2.30782 0.79806,-3.28207 4.94,-3.73642 5.70342,-0.29511 2.47191,3.20414 5.69561,0.0423 8.62235,0.37459 2.29536,0.47088 2.63239,3.12415 5.11973,2.76967 3.16597,1.58428 3.73983,5.83264 0.96702,8.04776 -2.24723,4.16235 4.56674,2.93156 4.70416,6.44362 0.98907,3.30571 -1.33622,6.84324 0.24138,10.00696 2.08624,2.56535 6.28455,4.61715 5.44629,8.54452 0.9401,3.01686 -0.54091,6.42885 -3.15088,8.19651 -2.86952,1.84469 -5.79646,3.76488 -8.96922,4.99446 -2.6385,0.38154 -9.54504,-0.16883 -6.89054,4.27142 2.30687,1.94298 2.96297,7.17301 -1.42862,6.17463 -2.76154,-0.26011 -4.13796,-5.54422 -7.11195,-2.30311 -0.74404,2.50183 -3.23873,4.2569 -5.44909,1.90212 -2.41242,-2.59834 -6.42231,-2.33085 -8.86325,-4.67323 -1.48876,-2.91758 -0.77157,-6.19866 -1.12084,-9.32572 -2.38204,-2.01815 -3.99204,-5.01264 -7.2303,-5.834 -3.05059,-2.16899 -4.69251,-6.52923 -4.16157,-10.11487 2.44259,-2.38012 7.45181,-2.61 6.88044,-7.26624 0.28239,-2.73074 -0.32801,-5.52473 0.19275,-8.21814 1.47643,-3.03412 6.57745,-2.50753 7.12043,-6.22395 -0.007,-0.45335 -0.21349,-0.87326 -0.50631,-1.20507 z"
       id="islandia" /><path
       style="fill:none;stroke:#000000"
       d="m 660.27544,248.5576 c -1.46573,3.16646 1.06774,6.18313 3.94984,6.79268 2.59879,3.19378 -2.93288,5.29714 -2.75501,7.5586 1.3525,1.44436 6.47782,0.6156 4.07446,3.814 -1.43747,1.62414 -7.53839,3.01793 -4.24158,5.64691 3.34037,0.91473 6.54557,2.72148 7.95001,6.04386 1.78527,2.97023 3.09231,6.74408 1.67322,10.1236 -2.44983,2.27655 -6.51402,4.06978 -5.60497,8.15531 -0.29171,3.77201 -2.92268,7.50155 -6.51344,8.7279 -3.05801,-0.005 -8.00642,-2.60222 -8.32387,2.42286 0.0377,3.52159 -4.2197,6.08051 -6.39919,2.53986 -1.84685,-2.96025 -4.88419,-1.73391 -7.30767,-0.64517 -4.52476,-0.0795 -6.10132,-6.22323 -10.78172,-5.78913 -2.62242,0.91167 -6.7351,2.50946 -7.29132,-1.78305 0.17023,-2.67553 1.57607,-5.52023 3.17047,-7.56411 4.01323,0.91807 5.64693,-4.11494 8.42001,-6.11896 2.80689,-2.60791 5.1062,-6.14651 5.94638,-9.89834 -1.04809,-2.4533 -0.62346,-6.21835 2.9147,-4.51685 3.83995,0.83543 5.25627,-3.46184 2.72931,-5.84901 -0.55991,-4.88875 6.08246,-2.57439 8.29072,-4.75085 2.64876,-2.98348 -3.24052,-7.1993 1.05716,-9.14744 2.97826,-0.97345 4.47106,-3.88613 7.10626,-5.35768 0.59735,-0.29526 1.26881,-0.45002 1.93623,-0.40499 z"
       id="granbretana" /><path
       style="fill:none;stroke:#000000"
       d="m 609.45146,350.96901 c -0.0656,-4.40365 4.97838,-6.15751 8.65481,-6.16966 4.20447,0.43447 8.16747,-0.98252 11.36314,-3.69559 3.00753,-2.61186 6.85148,-2.03039 10.13509,-0.46799 3.98633,1.07305 7.66542,0.93849 11.75836,1.30123 1.91718,5.30563 2.82805,12.24289 6.50971,17.16644 3.11372,3.60725 8.16117,6.15336 8.93862,11.29074 0.57042,4.36369 -2.95071,7.87018 -6.74667,9.3122 -3.559,1.35086 -6.48198,4.60332 -5.32574,8.51718 -0.38707,3.8096 -3.7598,6.10536 -6.95509,7.52716 -2.9453,1.65536 -6.53659,2.73984 -9.8116,1.35993 -3.49226,-1.09044 -7.52449,-2.91863 -11.0215,-0.84606 -4.43014,1.43633 -9.45937,3.67008 -13.99687,1.36686 -3.35649,-2.34821 1.16538,-6.39583 0.0201,-9.62873 -0.68361,-3.57856 -4.30958,-5.4976 -5.05414,-9.09232 -1.61253,-2.66104 -2.06141,-7.26673 1.93901,-7.80538 2.52058,-2.19387 1.52537,-6.56601 1.55067,-9.6537 -0.46802,-4.06383 -1.68632,-7.98868 -2.39416,-12.00919"
       id="espana" /><path
       style="fill:none;stroke:#000000"
       d="m 712.62632,336.13626 c -2.24163,2.6415 -5.68347,7.71888 -7.64356,11.6633 0.62527,3.67947 3.15281,8.28872 5.60951,11.9268 1.10333,4.59726 6.26517,7.89573 5.40637,12.65769 -1.57745,1.58039 -4.97613,4.12292 -0.97292,5.85104 4.47968,4.4624 4.5256,11.45716 8.56697,16.24128 2.29314,5.48947 8.19441,5.73775 12.22488,9.05824 3.53251,4.43543 7.95432,1.25515 11.22703,-1.054 5.50338,-1.47833 10.80572,-3.39792 16.63151,-3.83433 4.85848,-0.98586 5.76408,-9.22487 -0.32664,-7.43683 -4.65041,0.18082 -7.77653,-3.49554 -12.02715,-4.5103 -4.59197,-1.5686 -4.87563,-6.80072 -6.5263,-10.57026 -2.18957,-4.66439 -3.53908,-9.63114 -5.25926,-14.44708 0.76308,-4.89883 6.90922,-3.16119 10.43115,-3.50607 5.41483,0.32965 2.29995,-6.49917 -0.27595,-8.35392 -2.84119,-4.80032 -7.65259,-10.76988 -14.02009,-7.31339 -3.77934,2.17738 -8.26983,-0.44759 -12.37163,-0.19431 -3.61349,-1.40713 -6.88206,-7.3258 -10.67392,-6.17786 z"
       id="italia" /><path
       style="fill:none;stroke:#000000"
       d="m 699.42953,293.49211 c -6.68507,-4.03644 -8.64614,4.86314 -14.25412,5.72245 -5.61595,-0.28406 -8.88637,5.49982 -14.38962,5.87383 -3.17511,5.03246 -7.38186,10.88994 -7.4571,17.16564 2.77781,2.02929 7.48357,5.33864 1.50046,7.70832 -4.05497,3.31438 -8.67597,5.92906 -12.37153,9.65435 -1.53706,5.14231 2.52535,10.56762 3.62642,15.73706 -0.28012,5.91572 5.34265,7.50583 9.29798,10.22776 3.42287,3.51862 5.69101,-3.03941 8.96272,-4.36047 2.04266,-8.07647 11.159,-1.37567 16.31478,-4.35875 4.45339,-2.37811 7.08829,-7.23953 12.644,-7.45372 3.87336,-3.62134 7.44613,-9.59511 9.77604,-14.20822 -0.80861,-4.52302 -2.45701,-7.71283 0.0883,-11.64151 1.45012,-4.76794 -1.74875,-9.28624 -4.14066,-13.05271 -3.02529,-4.02577 -11.17168,-5.15706 -9.26667,-12.04419 -0.0339,-1.63834 0.20051,-3.39723 -0.33099,-4.96984 z"
       id="francia" /><path
       style="fill:none;stroke:#000000"
       d="m 715.89825,273.86053 c 5.6398,0.89099 10.42733,4.82755 16.26632,5.58092 4.55723,3.41401 9.50981,6.39156 14.01398,9.70405 3.69655,5.67717 0.0265,12.34395 0.80069,18.48196 0.12598,5.95414 4.40928,10.58582 6.65526,15.74827 4.19581,2.8616 9.06842,6.02697 9.20422,11.70649 1.78447,6.74155 0.2646,15.65384 -6.44666,19.07698 -5.83611,1.07359 -6.19942,-7.51215 -10.7305,-9.85304 -2.55632,-5.15849 -8.90818,-2.47473 -13.19813,-1.64351 -5.48474,1.18929 -12.10124,0.32199 -15.32666,-4.86359 -6.54158,-2.97278 -6.1326,-10.75518 -3.54571,-16.23714 0.16353,-5.08038 -3.26071,-11.38704 -7.70325,-14.00855 -5.93155,-1.07307 -8.27215,-11.71795 -4.26281,-15.09455 5.45225,-0.91645 9.39918,-3.52036 9.13438,-9.5175 0.90057,-3.61456 4.64115,-5.17837 5.13887,-9.08079 z"
       id="alemania" /><path
       style="fill:none;stroke:#000000"
       d="m 726.58655,188.89942 c -0.48199,3.34518 -6.24839,6.24407 -6.46087,10.95738 0.0115,4.48961 1.84607,7.3093 2.94622,12.13597 0.37662,6.56897 -1.33376,8.15284 -1.99295,11.09837 -2.25225,1.79804 -6.94519,0.19588 -6.30773,4.73422 -3.78196,3.18769 -7.5812,6.88816 -11.89761,9.60189 -4.15562,1.14371 -9.13735,5.77093 -12.3373,1.19682 -2.15749,1.63358 -3.79195,0.34005 -5.23796,-1.5573 -2.46612,1.0408 -6.45867,5.30942 -8.35593,0.81864 -1.27712,-3.27001 -0.63608,-6.7629 -0.74359,-10.15909 -3.26029,-4.17086 -3.5465,-9.22838 -5.55165,-13.83415 -1.89193,-3.10776 -1.57306,-6.6364 1.79774,-8.16832 0.89301,-3.32879 0.80564,-8.47978 5.90413,-7.00388 4.35887,-0.85655 8.15226,-3.73069 11.7584,-6.30124 3.26322,-3.71916 8.80275,-3.77701 10.74457,1.11849 3.61999,4.50666 7.4046,-1.92701 10.71329,-3.54514 3.32891,-1.87021 7.35789,-1.85378 11.10979,-1.9969 1.39307,-0.0935 2.78916,-0.0821 3.91145,0.90424 z"
       id="suecia" /><path
       style="fill:none;stroke:#000000"
       d="m 729.20409,269.82515 c -2.31245,2.58014 -13.29012,3.9352 -5.33777,6.20429 6.10825,1.74653 12.0217,5.0059 16.5714,9.28284 6.29597,1.86885 8.72803,8.56101 7.44235,14.62458 -2.31009,6.60468 0.65971,13.25836 3.68696,19.03702 1.55514,6.1706 9.96866,7.23866 10.88452,13.85386 2.70428,3.62008 -1.81438,12.88223 4.2505,12.84621 4.20019,-2.52568 7.86979,-6.1082 10.27613,-10.46796 5.33798,-1.94193 7.9198,-6.71158 11.04906,-11.03717 3.00728,-3.85699 11.53564,-5.07734 9.1718,-9.80523 -1.30026,-5.99217 -7.0188,-10.7042 -9.96901,-15.88381 -3.39871,-3.93183 -3.52107,-10.95164 -8.61979,-13.05843 -5.96952,-3.30536 -13.88635,-1.86975 -18.27606,-3.81944 -6.52894,-4.32285 -5.67728,-6.73981 -11.8089,-7.88749 -4.31629,-0.0759 -10.68356,-2.05786 -15.16311,-4.36525 -1.75055,-0.21702 -2.47399,-0.0682 -4.15808,0.47598 z"
       id="polonia" /><path
       style="fill:none;stroke:#000000"
       d="m 830.03406,302.29905 c -3.59001,0.47325 -9.34935,-1.26654 -14.99871,2.12612 -3.35307,6.09453 -9.50223,13.94056 -17.36613,12.54303 -4.43855,2.66168 -8.32933,4.38945 -10.64434,9.51515 -2.14911,5.86132 -9.58605,6.8568 -12.27419,12.00211 -3.75429,7.77371 7.5439,8.01177 11.1711,10.51872 -0.28729,7.66574 6.30608,7.10211 9.78728,2.44333 3.90588,-4.16822 13.44388,-0.99156 13.84884,-8.85082 2.72671,-6.04862 8.71714,-3.32498 13.17266,-5.57073 5.67175,-0.68539 9.84448,5.91392 16.19224,3.80006 6.40477,2.0797 9.76833,7.95748 16.04499,8.14497 3.61733,-1.17824 12.52283,7.67447 10.24302,0.0483 0.16038,-5.64935 8.34028,-12.59785 1.01722,-17.54699 -5.5831,-4.39449 -13.1996,-6.84352 -16.63637,-13.56943 -3.0159,-5.20966 -11.57935,-5.60979 -12.0936,-12.72535 -0.94039,-1.17941 -1.30308,-3.23533 -7.46401,-2.87843 z"
       id="turquia" /><path
       style="fill:none;stroke:#000000"
       d="m 729.71063,268.84076 c -3.8298,-8.46241 4.38613,-14.94571 -2.17608,-23.29675 -1.36172,-10.31552 -9.51612,-19.07136 -4.20119,-29.37621 1.02551,-8.12693 -7.69813,-16.19883 0.52923,-23.17815 9.34816,-1.92457 12.551,-10.56395 21.76045,-12.51019 7.81113,-4.09758 21.88206,2.92677 14.20885,12.98507 0.46462,6.80993 12.71366,3.21599 15.63759,10.27369 9.31755,5.14355 -2.18055,20.40546 11.79347,20.72853 9.02501,0.90954 15.54984,10.27929 11.3993,15.11071 0.48506,2.10018 0.68554,0.94557 4.37446,5.80728 0.31204,5.66912 1.05396,22.81281 6.73078,25.29576 4.18835,6.7257 8.92163,12.97721 14.48534,19.55646 9.33417,13.36345 10.00207,11.71698 -4.08708,12.36687 -10.74118,1.41978 -10.32123,18.32431 -22.1392,14.07662 -1.44505,-9.13645 -10.93329,-15.34402 -13.56063,-25.01213 -3.42483,-12.64462 -21.16099,-4.06237 -26.78544,-12.73195 -5.54847,-8.45164 -16.80588,-3.45931 -24.04145,-9.64495 -1.29442,-0.25675 -2.61004,-0.4019 -3.9284,-0.45066 z"
       id="rusia" /><path
       style="fill:none;stroke:#000000"
       d="m 787.55072,171.51516 c -0.44483,-2.66889 2.47409,-5.23821 3.69882,-7.52078 2.88376,1.99335 6.12183,1.89935 9.09877,-0.0431 3.37937,0.11717 7.45878,0.44721 8.95029,-3.38721 2.37353,-2.79667 4.05419,-10.70483 8.83734,-8.23506 2.71628,2.75454 5.84166,5.13696 8.0662,8.39661 4.60729,1.86999 4.28359,7.66596 2.34307,11.12285 -3.89433,3.41666 -0.32382,8.26174 -2.43144,12.35472 1.07958,3.05037 2.21993,8.0127 -1.29407,9.7752 -0.6773,3.74268 -0.8856,6.90439 -0.81596,10.69983 0.23168,5.06718 -6.87376,2.92396 -10.11229,3.55656 -3.34243,0.0451 -7.5676,0.97615 -5.9713,-3.68159 0.59038,-2.96979 -0.96158,-5.40848 -2.62594,-7.9058 -2.64283,-2.86085 -0.54613,-7.09399 -2.3505,-10.30247 -1.84686,-4.21206 -7.38815,-2.5268 -10.8283,-4.31865 -3.6815,-0.46616 -3.91973,-4.52608 -4.14504,-7.43642 -0.11325,-1.02817 -0.0586,-0.90857 -0.22879,-1.92954 z"
       id="tartaria" /><path
       style="fill:none;stroke:#000000"
       d="m 829.89774,166.48669 c 1.0625,-3.11938 5.95749,-4.83161 8.9361,-3.31668 2.36726,2.16449 3.30856,5.57446 6.58477,6.82173 3.3906,1.51545 7.0793,-4.14363 9.93369,-0.66926 1.54378,2.38152 0.09,5.95487 2.58839,7.81635 3.44965,-0.28633 4.14153,3.34538 4.23697,6.08559 0.69696,2.69392 -1.17757,4.37867 -2.84639,6.07101 -2.03722,2.48203 -2.87953,6.17402 -5.94631,7.57704 -3.2444,1.78675 -8.22296,1.00216 -10.21169,4.62778 -2.03579,2.74391 -5.38624,2.36652 -8.3924,2.63973 -2.36206,0.43648 -4.64974,0.19301 -6.85333,-0.80585 -3.05048,-0.2602 -4.44628,-2.8498 -3.84579,-5.704 -0.35899,-2.32149 0.15126,-3.78537 2.21924,-4.87614 1.78268,-2.69042 1.01775,-6.03349 -0.17874,-8.5036 2.35219,-1.9447 1.12518,-5.08271 1.03106,-7.65449 -1.19997,-2.77328 1.34571,-4.41232 2.62175,-6.46022 0.63395,-1.06425 0.28583,-2.3766 0.12268,-3.64899 z"
       id="taymir" /><path
       style="fill:none;stroke:#000000"
       d="m 873.53966,177.53053 c 3.42313,-1.98339 4.90812,-6.0731 8.41613,-7.92416 2.77074,-2.36774 6.57728,-1.83244 9.93842,-1.87004 1.92283,2.24935 5.15877,4.00876 6.99002,0.59571 3.11446,-3.38654 7.49231,-1.17089 9.41771,2.18618 1.76393,2.85322 1.18421,6.54641 3.37239,9.20534 1.67398,2.03973 5.30578,3.59396 3.15767,6.83847 -1.98302,2.54608 -6.91984,2.37937 -6.8332,6.56257 0.20919,3.10325 -3.25355,4.54174 -5.86522,4.58191 -2.99694,-0.13645 -4.37712,2.7064 -6.04849,4.63911 -2.65491,2.57694 -6.62907,2.72958 -10.10563,3.12161 -3.04537,-0.68821 -3.96406,-5.38432 -7.82177,-5.37373 -2.21837,-0.86387 -5.88831,-0.10139 -6.54319,-3.14387 -1.02287,-4.09589 -0.57888,-8.47446 0.92256,-12.40141 0.64709,-2.27572 1.35476,-4.62668 1.0026,-7.01769 z"
       id="kamchatka" /><path
       style="fill:none;stroke:#000000"
       d="m 812.15204,227.11877 c 5.92,0.2414 11.87705,0.32759 17.77733,0.0953 6.62752,0.17262 13.32242,2.10272 19.91504,0.66036 6.4624,1.5627 11.12414,-3.35166 16.12262,-6.37915 5.86305,-3.60109 14.51005,-2.8365 19.28464,-6.33604 3.82729,-2.32913 2.74753,-5.97876 -0.25978,-8.97821 -1.70948,-5.67867 -9.48171,-5.39249 -13.24544,-9.18782 -2.29402,-5.90387 1.40923,-11.71471 1.52699,-17.59221 -2.03497,-3.83507 -8.80415,-2.67776 -11.92061,-1.31591 2.14762,4.33433 1.52784,9.20257 -2.41226,12.3383 -2.27706,5.61389 -7.64949,7.47149 -13.0868,8.85538 -4.01299,3.56355 -9.19841,5.40458 -14.60194,5.10749 -2.67894,-0.80859 -9.43477,-4.89426 -7.23256,1.02213 -3.53838,4.42987 -11.15465,1.69009 -16.14441,3.26589 -1.36707,4.75127 0.0651,10.26375 2.34949,14.74286 0.60684,1.25246 1.31978,2.44983 1.92768,3.70166 z"
       id="siberia" /><path
       style="fill:none;stroke:#000000"
       d="m 811.76644,229.35525 c 3.9344,4.98943 5.94034,10.57282 12.38394,12.17876 5.74982,3.9194 6.18258,11.08093 6.80208,17.36319 0.97255,6.39449 10.55055,1.06903 10.05712,8.6538 7.01975,4.1146 6.37068,12.57913 9.82064,19.0969 4.53294,4.42906 5.526,11.78963 10.75582,15.81723 9.09988,7.87561 7.4772,14.58922 14.29232,20.12295 5.87128,0.864 6.93943,6.50862 0.81428,7.98994 -5.12576,8.2347 -11.79256,0.0425 -17.18074,-2.92185 -6.38974,-3.194 -8.03307,-10.94159 -14.39519,-14.03881 -8.43716,-1.20625 -5.25236,-11.92287 -13.88098,-11.84938 -2.03366,-5.63282 -8.1908,-13.7176 -13.73231,-19.41422 -4.23246,-5.53963 -8.68137,-11.95538 -11.51626,-16.60634 -1.67335,-7.2669 -3.20316,-12.4705 -2.8841,-19.58864 -0.45743,-3.93277 -6.97356,-4.55185 -3.09407,-9.33497 0.31022,-5.6849 8.7784,-2.92257 11.75745,-7.46856 z"
       id="iran" /><path
       style="fill:none;stroke:#000000"
       d="m 847.85866,273.93069 c 5.04209,-2.52484 10.20892,-5.52633 11.1433,-11.33082 4.96494,-2.38702 10.57871,-3.21712 15.69083,-5.33101 1.32929,-3.0161 6.45662,-2.8072 5.47866,-6.86788 1.85595,-2.80455 1.70716,-11.16979 0.15405,-16.50022 -2.28644,-3.67947 -1.34412,-8.09631 -1.91215,-12.11663 -2.84175,-6.23285 -10.50705,-1.17516 -14.10391,1.78819 -4.29468,4.01404 -10.4046,4.60706 -15.99457,4.57581 -5.19828,0.48815 -10.47506,0.56332 -15.58576,-0.62256 -7.05978,-0.3434 -13.38846,-0.0124 -20.45783,0.0654 -0.16464,3.92304 4.02439,6.40903 5.54698,10.20481 3.25815,1.87083 6.48392,3.64475 8.91658,6.61075 2.56992,3.03696 3.31262,7.19603 4.00113,11.03056 0.34555,4.62088 3.33972,7.86902 7.9636,7.9839 2.22645,3.70969 4.70758,7.55858 8.55308,9.95479 -0.31235,0.35323 0.50169,0.54098 0.60601,0.55487 z"
       id="mongolia" /><path
       style="fill:none;stroke:#000000"
       d="m 882.25424,247.70984 c 3.56954,3.04635 7.95248,6.31369 9.31941,9.67915 2.35185,3.2854 2.63711,6.52868 4.50965,9.73871 3.57354,3.61479 -1.03158,6.89243 -0.87193,10.75558 -0.56271,4.724 -4.23499,8.4029 -7.65692,11.3857 -4.39795,2.52005 -4.48549,8.26837 -6.76539,12.35349 -0.66451,4.58037 -3.90376,7.61401 -8.19384,7.14497 -4.99057,3.20549 -2.71778,2.92211 -5.79762,-0.30866 -1.58352,-3.8542 -5.64778,-5.70103 -7.8294,-9.06378 -2.75644,-4.70268 -5.12062,-9.73181 -8.71609,-13.85148 -1.20857,-3.75468 -3.57117,-7.49399 -2.70193,-11.61287 3.64965,-1.57527 7.76115,-3.24395 9.7555,-6.9497 0.51291,-5.66424 6.86029,-5.32456 10.91269,-6.93193 3.48035,-1.05556 6.40756,-3.4717 9.33274,-5.42705 3.26405,-0.80105 1.46264,-5.70303 4.70313,-6.91217 z"
       id="gobi" /><path
       style="fill:none;stroke:#000000"
       d="m 787.77164,356.53129 c 0.1504,4.15823 -1.83317,9.18698 0.32719,12.76052 3.22008,2.39442 6.00533,5.97394 10.31608,6.18936 4.05145,0.40594 6.0408,3.11268 7.35841,6.58162 2.50374,4.94604 8.01837,1.72488 10.60962,-1.26183 5.32306,-1.55609 5.20874,-7.15397 6.66442,-11.12681 2.84497,-0.70531 2.99958,-2.73606 3.80915,-5.26665 3.75932,0.0774 7.1754,-1.33842 8.29278,-5.00867 1.61133,-4.05026 6.97358,-2.94234 8.62565,-6.91253 2.12182,-1.5229 4.22889,-2.96212 4.49068,-5.24606 -2.22595,-4.95818 -9.83847,-6.83373 -15.97581,-6.242 -3.75462,-1.81258 -7.6524,-6.48743 -11.76927,-2.57082 -3.96612,0.21831 -8.79665,-1.27651 -10.06352,3.9255 -1.52401,4.04795 -5.47857,6.62312 -9.84263,6.7091 -5.42517,-0.37721 -7.24721,6.22196 -12.33165,6.17232 l -0.38408,0.4717 z"
       id="israel" /><path
       style="fill:none;stroke:#000000"
       d="m 812.9671,385.11269 c 0.78737,5.22602 7.84217,6.78685 11.44399,3.0452 5.93211,-2.12146 7.7312,5.36348 11.19699,7.62591 3.1651,-1.6818 7.48474,-6.36674 9.24763,-0.2407 1.69055,3.26946 5.5954,1.59319 7.98862,4.12405 3.91228,0.0214 6.10809,-4.2886 4.8028,-7.85457 -0.27003,-4.7904 7.25125,-6.35026 5.7487,-11.52671 -2.11657,-3.06576 -5.99156,-8.47475 -0.53281,-10.66983 3.93042,-0.55065 5.03152,-4.14508 5.05619,-7.34491 3.88769,-2.51548 0.19581,-7.61864 -3.03242,-8.91403 -3.17916,-2.61576 -8.08018,-4.7959 -13.92305,-5.49442 -3.88375,-2.56942 -4.04698,2.63948 -8.0488,5.63834 -2.77469,2.68671 -7.46914,3.79294 -8.68186,8.54542 -2.40503,1.95683 -5.8266,1.86673 -7.44394,2.9051 -1.19192,3.13309 -1.40873,3.76062 -3.71583,4.70759 -0.17811,10.31587 -8.42883,11.71804 -10.10621,15.45356 z"
       id="arabia" /><path
       style="fill:none;stroke:#000000"
       d="m 880.80351,329.15614 c 4.4725,3.93347 13.77616,4.85538 13.65608,12.09125 -3.2756,5.82592 0.1884,12.45685 -3.06539,18.93032 -0.27928,6.51236 -9.57434,9.12807 -7.35721,16.38977 -2.05969,5.27647 -0.7359,10.61641 5.81033,9.63478 4.13757,4.38836 9.43149,5.10478 14.25064,7.72172 4.57638,-3.23695 -5.98671,-11.94822 -1.49011,-17.27927 7.15872,-0.28284 8.7874,-7.57787 12.45507,-12.62546 2.96414,-4.40553 6.88861,-8.5209 5.65717,-14.40208 -0.82912,-5.5759 2.06496,-11.82687 7.92924,-12.11888 4.38204,-4.42955 -1.50977,-13.82278 -3.14596,-18.5425 -1.02502,-0.3129 -7.77538,4.34936 -15.37141,4.34132 -4.44812,0.26588 -10.42593,-3.00947 -13.92181,-1.36181 -4.61344,1.07382 -11.33342,0.80717 -16.55118,1.52617 -0.64816,0.95898 1.34378,1.17424 1.14454,5.69467 z"
       id="india" /><path
       style="fill:none;stroke:#000000"
       d="m 895.5189,203.59713 c 1.59471,4.68092 9.65028,2.72756 14.36303,2.6452 2.98965,4.18953 15.82842,12.72071 4.19968,13.66578 0.73761,6.90685 3.25495,16.67616 12.40065,14.29577 5.99041,4.88453 -9.40524,4.71786 -1.66385,9.28339 -1.20377,6.15252 1.08929,10.51895 7.74545,9.95146 1.77968,8.47859 10.95424,8.7667 17.79095,6.50745 2.76217,4.92602 9.43708,5.31361 13.97828,6.88488 6.82061,-1.83726 9.09071,8.88874 10.1009,13.76037 -6.85393,2.98853 4.91633,12.67182 -5.21541,15.06715 -9.72102,3.08107 -14.4137,13.5555 -24.28799,16.33692 -8.85426,1.17471 -17.01687,5.52042 -25.1337,9.52798 -7.02516,2.5746 -13.7172,2.07431 -20.13447,-0.59874 -7.02135,2.70944 -14.62017,2.4668 -21.81813,2.10983 -5.76352,-2.50549 -14.07401,-12.49219 -3.45631,-14.55407 9.08351,-2.97123 6.96156,-16.41388 15.41034,-21.28755 3.93026,-4.86229 6.58601,-10.82659 7.47539,-18.10073 -2.9458,-3.64115 -7.46938,-18.27146 -15.16609,-21.83651 -0.74616,-4.35505 0.77476,-7.77662 -1.91957,-13.75277 -1.94121,-6.29895 -0.0899,-11.25814 -4.52865,-15.35553 7.09732,-0.37997 14.89045,-3.57896 9.95329,-12.39047 3.42715,-0.61679 6.33752,-2.84323 9.90621,-2.15981 z"
       id="china" /><path
       style="fill:none;stroke:#000000"
       d="m 935.11755,189.5538 c -4.34056,-1.04597 -5.80362,2.7689 -5.90663,6.27487 -2.19865,4.03571 2.05412,8.2322 5.48888,9.97282 4.19246,1.83984 1.6492,8.13423 6.14071,9.23138 5.19446,2.94909 5.71213,5.14247 5.39173,9.17589 0.76238,4.00235 7.81262,9.18238 10.16496,3.7182 2.39376,-1.75952 5.98825,-3.5602 8.90119,-2.15958 2.54688,1.93361 2.90065,5.49678 5.07589,7.80734 2.32131,3.92975 7.24757,4.56552 11.37307,4.63243 4.17255,-1.95521 3.34695,-10.27564 -0.93185,-11.89867 -0.5819,-2.55309 0.3296,-6.71783 -3.73775,-5.62317 -3.19247,-0.5892 -2.14468,-7.55944 -3.50259,-10.45684 -3.74908,-4.63011 -0.99239,-10.31354 -5.39365,-14.46234 -2.42159,-2.85326 -13.23703,-3.80301 -18.18347,-1.61892 -3.84738,-0.36824 -9.21812,1.55042 -12.00113,-1.79954 -0.90391,-0.9798 -1.64963,-2.18049 -2.87936,-2.79387 z"
       id="japon" /><path
       style="fill:none;stroke:#000000"
       d="m 872.99982,396.39745 c 0.8704,-0.14703 4.68772,1.30511 6.65992,2.47367 3.12852,2.50275 10.03636,-0.41427 12.85014,2.62055 1.89571,3.05197 4.12448,7.55874 5.75017,10.66638 0.72931,4.13653 -2.56514,9.9043 -2.29162,14.05531 -0.77693,5.03706 3.23372,9.03812 6.86728,11.87783 2.41197,1.90153 2.40575,5.75114 -1.3975,4.50832 -3.4405,0.37777 -5.69978,-2.59064 -8.28748,-4.30066 -3.42524,-1.5193 -8.20727,-0.68283 -10.59788,-4.46402 -3.10709,-3.075 -3.47245,-7.95057 -6.86493,-10.83908 -2.98591,-2.37484 -6.98772,-3.47611 -9.31919,-6.69939 -1.89762,-2.86326 -4.60155,-7.07425 -2.00636,-10.33602 3.51753,-2.11181 4.3256,-6.28922 7.03388,-8.90015 0.50465,-0.28655 1.05368,-0.48343 1.60357,-0.66274 z"
       id="sumatra" /><path
       style="fill:none;stroke:#000000"
       d="m 935.31288,356.44922 c -1.51162,0.59779 0.91159,-0.40102 -1.14137,0.63124 -2.58571,3.08718 -3.37966,7.35563 -5.44902,10.81924 -1.7241,2.88527 -4.18963,5.23329 -7.07273,6.94047 -3.30709,2.71499 -7.11202,9.30006 -4.66452,12.29392 0.91806,3.33515 0.9483,10.06291 4.00048,12.35359 2.7026,0.97879 4.96713,0.26632 6.07526,2.61655 2.64147,2.88819 6.81072,2.00737 10.26153,2.54539 4.11515,-0.0359 4.76366,5.12705 8.23443,5.99482 2.82468,-0.23064 2.83025,-4.4811 3.44263,-6.77807 0.93159,-3.43888 -0.9766,-6.6478 -3.30912,-9.04789 -3.60587,-2.31341 -2.89127,-6.66649 -2.28264,-10.18821 -0.65559,-2.78375 0.76318,-5.71947 -0.2188,-8.371 -3.77361,-0.16195 -7.82825,-4.92751 -3.09468,-7.31659 1.64215,-1.1946 6.70101,-4.56018 2.86736,-5.87944 -3.59067,-0.83825 -5.39974,-4.08166 -7.64881,-6.61402 z"
       id="borneo" /><path
       style="fill:none;stroke:#000000"
       d="m 966.93214,360.45947 c 0.59968,4.06661 -0.88574,7.92676 -4.96485,9.38506 -2.50504,1.48144 -5.06641,3.74476 -4.49829,6.98263 0.32388,3.60685 1.99954,7.33632 -1.00196,10.25287 -0.92312,2.63563 -1.99215,5.3728 -1.55396,8.25006 -0.632,6.12668 2.51944,12.57391 8.05861,15.40306 4.26578,0.53763 1.24571,-5.05215 2.85909,-7.23271 1.61907,-2.69197 6.62842,-2.88525 5.38566,-7.12813 -0.87298,-4.56863 7.09387,-3.18634 7.89182,-7.24182 1.48134,-3.35521 4.19248,-6.81552 4.05874,-10.61895 0.90125,-3.12356 -0.51327,-6.40869 -0.0884,-9.42622 -0.21218,-3.08842 -2.93295,-7.58661 -3.30799,-10.6632 0.77913,-4.89148 -3.70106,-0.30299 -5.88454,0.20701 -2.1448,1.37097 -4.94097,0.31979 -6.95393,1.83034 z"
       id="java" /><path
       style="fill:none;stroke:#000000"
       d="m 967.48149,296.29025 c 4.37317,1.74962 6.40013,8.10788 6.53095,12.44248 0.0453,3.89275 -1.26368,7.9222 -2.15374,11.54226 -4.96019,3.25559 0.23458,8.93079 -0.1296,13.29916 -0.12314,3.58815 1.1757,10.98093 -4.15079,10.74161 -5.46196,-1.55365 -5.23022,5.36321 -8.04887,8.33814 -2.31693,0.84955 -3.92268,4.38148 -6.29663,3.57499 -0.65755,-3.61975 -2.36999,-6.23882 -5.78293,-7.63631 -3.48373,-2.93092 -0.33526,-8.51403 -4.06856,-11.55653 -2.00832,-4.32297 -6.08363,-6.3416 -10.64272,-5.95408 -3.8813,-2.24866 -4.69108,-7.32693 -6.60762,-11.04003 0.98157,-3.51824 6.54695,-3.40042 9.50124,-5.43328 3.21441,-0.5688 6.30139,-1.5503 9.39871,-2.58789 4.68545,-0.21468 7.59057,-4.53589 10.77487,-7.45676 2.73796,-2.86095 4.25924,-3.91875 7.55937,-6.02084 2.77157,-1.29087 3.53038,-1.85619 4.11632,-2.25292 z"
       id="malasia" /><path
       style="fill:none;stroke:#000000"
       d="m 786.5679,171.29662 c -3.84187,-0.34609 -3.49483,2.17812 -6.29007,5.15553 -2.06901,4.93575 1.06262,9.39955 -4.54647,12.25281 -3.9075,2.95791 -10.82755,9.85338 -2.71413,11.87918 3.73274,3.41562 7.09125,9.53968 6.72134,15.3809 -1.26329,6.79966 4.69506,9.04166 10.1929,9.4636 5.8324,0.51164 8.66296,6.05466 10.27069,9.12826 3.88173,-0.62373 13.50856,-3.51388 11.33215,-8.8584 -4.21904,-5.19476 -4.58464,-11.04581 -3.75083,-17.53554 1.76034,-5.59033 -3.6718,-13.0155 -4.42256,-18.47129 0.24224,-6.37025 -6.03272,-6.91147 -10.76509,-7.61939 -6.10789,-0.8689 -4.50583,-6.98296 -6.02793,-10.77566 z"
       id="aral" /></g><g
     id="layer3"><path
       style="display:inline;fill:none;stroke:#000000"
       id="tropa-alemania"
       d="m 739.21641,311.80679 a 10.650796,10.871767 0 0 1 -10.64271,10.87177 10.650796,10.871767 0 0 1 -10.65887,-10.85527 10.650796,10.871767 0 0 1 10.62653,-10.88824 10.650796,10.871767 0 0 1 10.675,10.83874" /><path
       style="display:inline;fill:none;stroke:#000000"
       id="tropa-israel"
       d="m 820.09007,361.38397 a 10.650796,10.871767 0 0 1 -10.64272,10.87177 10.650796,10.871767 0 0 1 -10.65886,-10.85527 10.650796,10.871767 0 0 1 10.62653,-10.88824 10.650796,10.871767 0 0 1 10.675,10.83874" /><path
       style="display:inline;fill:none;stroke:#000000"
       id="tropa-india"
       d="m 916.73563,353.33508 a 10.650796,10.871767 0 0 1 -10.64271,10.87177 10.650796,10.871767 0 0 1 -10.65886,-10.85527 10.650796,10.871767 0 0 1 10.62653,-10.88824 10.650796,10.871767 0 0 1 10.675,10.83874" /><path
       style="display:inline;fill:none;stroke:#000000"
       id="tropa-borneo"
       d="m 940.80161,385.74677 a 10.650796,10.871767 0 0 1 -10.64271,10.87176 10.650796,10.871767 0 0 1 -10.65887,-10.85526 10.650796,10.871767 0 0 1 10.62654,-10.88824 10.650796,10.871767 0 0 1 10.67499,10.83873" /><path
       style="display:inline;fill:none;stroke:#000000"
       id="tropa-java"
       d="m 981.05161,379.24677 a 10.650796,10.871767 0 0 1 -10.64271,10.87176 10.650796,10.871767 0 0 1 -10.65887,-10.85526 10.650796,10.871767 0 0 1 10.62654,-10.88824 10.650796,10.871767 0 0 1 10.67499,10.83873" /><path
       style="display:inline;fill:none;stroke:#000000"
       id="tropa-sumatra"
       d="m 895.12742,413.604 a 10.650796,10.871767 0 0 1 -10.64271,10.87177 10.650796,10.871767 0 0 1 -10.65887,-10.85526 10.650796,10.871767 0 0 1 10.62653,-10.88824 10.650796,10.871767 0 0 1 10.675,10.83873" /><path
       style="display:inline;fill:none;stroke:#000000"
       id="tropa-arabia"
       d="m 851.80161,374.37177 a 10.650796,10.871767 0 0 1 -10.64271,10.87176 10.650796,10.871767 0 0 1 -10.65887,-10.85526 10.650796,10.871767 0 0 1 10.62654,-10.88824 10.650796,10.871767 0 0 1 10.67499,10.83873" /><path
       style="display:inline;fill:none;stroke:#000000"
       id="tropa-egipto"
       d="m 804.80161,426.37177 a 10.650796,10.871767 0 0 1 -10.64271,10.87176 10.650796,10.871767 0 0 1 -10.65887,-10.85526 10.650796,10.871767 0 0 1 10.62654,-10.88824 10.650796,10.871767 0 0 1 10.67499,10.83873" /><path
       style="display:inline;fill:none;stroke:#000000"
       id="tropa-etiopia"
       d="m 788.80161,456.37177 a 10.650796,10.871767 0 0 1 -10.64271,10.87176 10.650796,10.871767 0 0 1 -10.65887,-10.85526 10.650796,10.871767 0 0 1 10.62654,-10.88824 10.650796,10.871767 0 0 1 10.67499,10.83873" /><path
       style="display:inline;fill:none;stroke:#000000"
       id="tropa-zaire"
       d="m 746.56419,473.78598 a 10.650796,10.871767 0 0 1 -10.64272,10.87176 10.650796,10.871767 0 0 1 -10.65886,-10.85526 10.650796,10.871767 0 0 1 10.62653,-10.88824 10.650796,10.871767 0 0 1 10.675,10.83874" /><path
       style="display:inline;fill:none;stroke:#000000"
       id="tropa-sahara"
       d="m 714.80161,442.37177 a 10.650796,10.871767 0 0 1 -10.64271,10.87176 10.650796,10.871767 0 0 1 -10.65887,-10.85526 10.650796,10.871767 0 0 1 10.62654,-10.88824 10.650796,10.871767 0 0 1 10.67499,10.83873" /><path
       style="display:inline;fill:none;stroke:#000000"
       id="tropa-sudafrica"
       d="m 795.2158,505.83624 a 10.650796,10.871767 0 0 1 -10.64271,10.87177 10.650796,10.871767 0 0 1 -10.65887,-10.85527 10.650796,10.871767 0 0 1 10.62653,-10.88824 10.650796,10.871767 0 0 1 10.675,10.83874" /><path
       style="display:inline;fill:none;stroke:#000000"
       id="tropa-madagascar"
       d="m 857.45329,481.95236 a 10.650796,10.871767 0 0 1 -10.64272,10.87177 10.650796,10.871767 0 0 1 -10.65886,-10.85527 10.650796,10.871767 0 0 1 10.62653,-10.88824 10.650796,10.871767 0 0 1 10.675,10.83874" /><path
       style="display:inline;fill:none;stroke:#000000"
       id="tropa-australia"
       d="m 961.80161,463.37177 a 10.650796,10.871767 0 0 1 -10.64271,10.87176 10.650796,10.871767 0 0 1 -10.65887,-10.85526 10.650796,10.871767 0 0 1 10.62654,-10.88824 10.650796,10.871767 0 0 1 10.67499,10.83873" /><path
       style="display:inline;fill:none;stroke:#000000"
       id="tropa-malasia"
       d="m 964.56522,322.28671 a 10.650796,10.871767 0 0 1 -10.64271,10.87177 10.650796,10.871767 0 0 1 -10.65886,-10.85527 10.650796,10.871767 0 0 1 10.62653,-10.88824 10.650796,10.871767 0 0 1 10.675,10.83874" /><path
       style="display:inline;fill:none;stroke:#000000"
       id="tropa-china"
       d="m 932.87357,281.4809 a 10.650796,10.871767 0 0 1 -10.64271,10.87176 10.650796,10.871767 0 0 1 -10.65887,-10.85526 10.650796,10.871767 0 0 1 10.62654,-10.88824 10.650796,10.871767 0 0 1 10.675,10.83873" /><path
       style="display:inline;fill:none;stroke:#000000"
       id="tropa-japon"
       d="m 969.90824,211.38895 a 10.650796,10.871767 0 0 1 -10.64271,10.87176 10.650796,10.871767 0 0 1 -10.65887,-10.85526 10.650796,10.871767 0 0 1 10.62654,-10.88824 10.650796,10.871767 0 0 1 10.67499,10.83873" /><path
       style="display:inline;fill:none;stroke:#000000"
       id="tropa-gobi"
       d="m 884.08323,280.06668 a 10.650796,10.871767 0 0 1 -10.64271,10.87176 10.650796,10.871767 0 0 1 -10.65887,-10.85526 10.650796,10.871767 0 0 1 10.62654,-10.88824 10.650796,10.871767 0 0 1 10.67499,10.83874" /><path
       style="display:inline;fill:none;stroke:#000000"
       id="tropa-turquia"
       d="m 827.51469,324.96796 a 10.650796,10.871767 0 0 1 -10.64272,10.87176 10.650796,10.871767 0 0 1 -10.65886,-10.85526 10.650796,10.871767 0 0 1 10.62653,-10.88824 10.650796,10.871767 0 0 1 10.675,10.83873" /><path
       style="display:inline;fill:none;stroke:#000000"
       id="tropa-iran"
       d="m 847.66721,284.30933 a 10.650796,10.871767 0 0 1 -10.64271,10.87176 10.650796,10.871767 0 0 1 -10.65887,-10.85526 10.650796,10.871767 0 0 1 10.62654,-10.88824 10.650796,10.871767 0 0 1 10.675,10.83873" /><path
       style="display:inline;fill:none;stroke:#000000"
       id="tropa-kamchatka"
       d="m 899.28599,186.37503 a 10.650796,10.871767 0 0 1 -10.64271,10.87176 10.650796,10.871767 0 0 1 -10.65887,-10.85526 10.650796,10.871767 0 0 1 10.62653,-10.88824 10.650796,10.871767 0 0 1 10.675,10.83874" /><path
       style="display:inline;fill:none;stroke:#000000"
       id="tropa-taymir"
       d="m 851.90983,182.13239 a 10.650796,10.871767 0 0 1 -10.64271,10.87176 10.650796,10.871767 0 0 1 -10.65887,-10.85526 10.650796,10.871767 0 0 1 10.62653,-10.88824 10.650796,10.871767 0 0 1 10.675,10.83873" /><path
       style="display:inline;fill:none;stroke:#000000"
       id="tropa-mongolia"
       d="m 864.28422,247.18622 a 10.650796,10.871767 0 0 1 -10.64271,10.87176 10.650796,10.871767 0 0 1 -10.65887,-10.85526 10.650796,10.871767 0 0 1 10.62653,-10.88824 10.650796,10.871767 0 0 1 10.675,10.83874" /><path
       style="display:inline;fill:none;stroke:#000000"
       id="tropa-siberia"
       d="m 858.27378,212.89154 a 10.650796,10.871767 0 0 1 -10.64271,10.87176 10.650796,10.871767 0 0 1 -10.65887,-10.85526 10.650796,10.871767 0 0 1 10.62654,-10.88824 10.650796,10.871767 0 0 1 10.67499,10.83874" /><path
       style="display:inline;fill:none;stroke:#000000"
       id="tropa-tartaria"
       d="m 822.21134,175.76843 a 10.650796,10.871767 0 0 1 -10.64271,10.87177 10.650796,10.871767 0 0 1 -10.65887,-10.85527 10.650796,10.871767 0 0 1 10.62654,-10.88824 10.650796,10.871767 0 0 1 10.67499,10.83874" /><path
       style="display:inline;fill:none;stroke:#000000"
       id="tropa-aral"
       d="m 803.11948,205.46692 a 10.650796,10.871767 0 0 1 -10.64271,10.87176 10.650796,10.871767 0 0 1 -10.65886,-10.85526 10.650796,10.871767 0 0 1 10.62653,-10.88824 10.650796,10.871767 0 0 1 10.675,10.83874" /><path
       style="display:inline;fill:none;stroke:#000000"
       id="tropa-italia"
       d="m 737.00498,361.0304 a 10.650796,10.871767 0 0 1 -10.64271,10.87176 10.650796,10.871767 0 0 1 -10.65887,-10.85526 10.650796,10.871767 0 0 1 10.62654,-10.88824 10.650796,10.871767 0 0 1 10.67499,10.83873" /><path
       style="display:inline;fill:none;stroke:#000000"
       id="tropa-polonia"
       d="m 773.06742,306.93674 a 10.650796,10.871767 0 0 1 -10.64271,10.87176 10.650796,10.871767 0 0 1 -10.65887,-10.85526 10.650796,10.871767 0 0 1 10.62654,-10.88824 10.650796,10.871767 0 0 1 10.67499,10.83873" /><path
       style="display:inline;fill:none;stroke:#000000"
       id="tropa-francia"
       d="m 691.04307,339.11011 a 10.650796,10.871767 0 0 1 -10.64271,10.87176 10.650796,10.871767 0 0 1 -10.65887,-10.85526 10.650796,10.871767 0 0 1 10.62653,-10.88824 10.650796,10.871767 0 0 1 10.675,10.83874" /><path
       style="display:inline;fill:none;stroke:#000000"
       id="tropa-yukon"
       d="m 294.1811,244.18971 a 10.650796,10.871767 0 0 1 -10.64271,10.87177 10.650796,10.871767 0 0 1 -10.65887,-10.85527 10.650796,10.871767 0 0 1 10.62654,-10.88824 10.650796,10.871767 0 0 1 10.67499,10.83874" /><path
       style="display:inline;fill:none;stroke:#000000"
       id="tropa-rusia"
       d="m 770.80399,243.11693 a 10.650796,10.871767 0 0 1 -10.64271,10.87176 10.650796,10.871767 0 0 1 -10.65887,-10.85526 10.650796,10.871767 0 0 1 10.62654,-10.88824 10.650796,10.871767 0 0 1 10.675,10.83874" /><path
       style="display:inline;fill:none;stroke:#000000"
       id="tropa-espana"
       d="m 645.29252,368.98193 a 10.650796,10.871767 0 0 1 -10.64271,10.87177 10.650796,10.871767 0 0 1 -10.65887,-10.85527 10.650796,10.871767 0 0 1 10.62653,-10.88824 10.650796,10.871767 0 0 1 10.675,10.83874" /><path
       style="display:inline;fill:none;stroke:#000000"
       id="tropa-suecia"
       d="m 706.45725,214.83266 a 10.650796,10.871767 0 0 1 -10.64271,10.87176 10.650796,10.871767 0 0 1 -10.65887,-10.85526 10.650796,10.871767 0 0 1 10.62654,-10.88824 10.650796,10.871767 0 0 1 10.67499,10.83873" /><path
       style="display:inline;fill:none;stroke:#000000"
       id="tropa-granbretania"
       d="m 659.43467,288.37177 a 10.650796,10.871767 0 0 1 -10.64271,10.87176 10.650796,10.871767 0 0 1 -10.65887,-10.85526 10.650796,10.871767 0 0 1 10.62654,-10.88824 10.650796,10.871767 0 0 1 10.67499,10.83873" /><path
       style="display:inline;fill:none;stroke:#000000"
       id="tropa-islandia"
       d="m 574.40507,271.04764 a 10.650796,10.871767 0 0 1 -10.64271,10.87176 10.650796,10.871767 0 0 1 -10.65887,-10.85526 10.650796,10.871767 0 0 1 10.62653,-10.88824 10.650796,10.871767 0 0 1 10.675,10.83874" /><path
       style="display:inline;fill:none;stroke:#000000"
       id="tropa-groenlandia"
       d="m 495.3859,171.16882 a 10.650796,10.871767 0 0 1 -10.64271,10.87177 10.650796,10.871767 0 0 1 -10.65887,-10.85527 10.650796,10.871767 0 0 1 10.62654,-10.88824 10.650796,10.871767 0 0 1 10.67499,10.83874" /><path
       style="display:inline;fill:none;stroke:#000000"
       id="tropa-canada"
       d="m 352.02,196.80144 a 10.650796,10.871767 0 0 1 -10.64272,10.87176 10.650796,10.871767 0 0 1 -10.65886,-10.85526 10.650796,10.871767 0 0 1 10.62653,-10.88824 10.650796,10.871767 0 0 1 10.675,10.83874" /><path
       style="display:inline;fill:none;stroke:#000000"
       id="tropa-labrador"
       d="m 432.09983,216.77721 a 10.650796,9.6343298 0 0 1 -10.64271,9.63432 10.650796,9.6343298 0 0 1 -10.65887,-9.6197 10.650796,9.6343298 0 0 1 10.62654,-9.64893 10.650796,9.6343298 0 0 1 10.67499,9.60506" /><path
       style="display:inline;fill:none;stroke:#000000"
       id="tropa-terranova"
       d="m 401.69425,249.30412 a 10.650796,10.871767 0 0 1 -10.64271,10.87177 10.650796,10.871767 0 0 1 -10.65887,-10.85527 10.650796,10.871767 0 0 1 10.62654,-10.88824 10.650796,10.871767 0 0 1 10.67499,10.83874" /><path
       style="display:inline;fill:none;stroke:#000000"
       id="tropa-nuevayork"
       d="m 396.56773,276.7045 a 10.650796,10.871767 0 0 1 -10.64272,10.87176 10.650796,10.871767 0 0 1 -10.65886,-10.85526 10.650796,10.871767 0 0 1 10.62653,-10.88824 10.650796,10.871767 0 0 1 10.675,10.83874" /><path
       style="display:inline;fill:none;stroke:#000000"
       id="tropa-alaska"
       d="m 242.772,273.87607 a 10.650796,10.871767 0 0 1 -10.64272,10.87176 10.650796,10.871767 0 0 1 -10.65886,-10.85526 10.650796,10.871767 0 0 1 10.62653,-10.88824 10.650796,10.871767 0 0 1 10.675,10.83874" /><path
       style="display:inline;fill:none;stroke:#000000"
       id="tropa-oregon"
       d="m 299.57276,297.57626 a 10.650796,10.871767 0 0 1 -10.64271,10.87177 10.650796,10.871767 0 0 1 -10.65887,-10.85527 10.650796,10.871767 0 0 1 10.62654,-10.88824 10.650796,10.871767 0 0 1 10.67499,10.83874" /><path
       style="display:inline;fill:none;stroke:#000000"
       id="tropa-mexico"
       d="m 410.1875,338.65625 a 9.84375,10.28125 0 0 1 -9.83628,10.28125 9.84375,10.28125 0 0 1 -9.85121,-10.26565 9.84375,10.28125 0 0 1 9.82133,-10.29682 9.84375,10.28125 0 0 1 9.86611,10.25001" /><path
       style="display:inline;fill:none;stroke:#000000"
       id="tropa-colombia"
       d="m 475.9375,375.03125 a 9.84375,10.28125 0 0 1 -9.83628,10.28125 9.84375,10.28125 0 0 1 -9.85121,-10.26565 9.84375,10.28125 0 0 1 9.82133,-10.29682 9.84375,10.28125 0 0 1 9.86611,10.25001" /><path
       style="display:inline;fill:none;stroke:#000000"
       id="tropa-brasil"
       d="m 532.9375,405.40625 a 9.84375,10.28125 0 0 1 -9.83628,10.28125 9.84375,10.28125 0 0 1 -9.85121,-10.26565 9.84375,10.28125 0 0 1 9.82133,-10.29682 9.84375,10.28125 0 0 1 9.86611,10.25001" /><path
       style="display:inline;fill:none;stroke:#000000"
       id="tropa-peru"
       d="m 474.5625,406.78125 a 9.84375,10.28125 0 0 1 -9.83628,10.28125 9.84375,10.28125 0 0 1 -9.85121,-10.26565 9.84375,10.28125 0 0 1 9.82133,-10.29682 9.84375,10.28125 0 0 1 9.86611,10.25001" /><path
       style="display:inline;fill:none;stroke:#000000"
       id="tropa-chile"
       d="m 472.05362,458.4277 a 9.84375,10.28125 0 0 1 -9.83628,10.28125 9.84375,10.28125 0 0 1 -9.85121,-10.26564 9.84375,10.28125 0 0 1 9.82133,-10.29683 9.84375,10.28125 0 0 1 9.86611,10.25001" /><path
       style="display:inline;fill:none;stroke:#000000"
       id="tropa-argentina"
       d="m 493.89049,473.6582 a 8.7504463,9.1040001 0 0 1 -8.7438,9.104 8.7504463,9.1040001 0 0 1 -8.75708,-9.09018 8.7504463,9.1040001 0 0 1 8.73051,-9.11779 8.7504463,9.1040001 0 0 1 8.77033,9.07634" /><path
       style="display:inline;fill:none;stroke:#000000"
       id="tropa-uruguay"
       d="M 537.75,448.71875 A 9.84375,10.28125 0 0 1 527.91372,459 a 9.84375,10.28125 0 0 1 -9.85121,-10.26565 9.84375,10.28125 0 0 1 9.82133,-10.29682 9.84375,10.28125 0 0 1 9.86611,10.25001" /><path
       style="display:inline;fill:none;stroke:#000000"
       id="tropa-california"
       d="m 353.465,304.85141 a 10.650796,10.871767 0 0 1 -10.64271,10.87176 10.650796,10.871767 0 0 1 -10.65886,-10.85526 10.650796,10.871767 0 0 1 10.62653,-10.88824 10.650796,10.871767 0 0 1 10.675,10.83874" /></g><g
     id="layer4"><path
       style="fill:none;stroke:#000000"
       d="m 452.5,488.0625 c -216.5,0 -221,0.4375 -221,0.4375"
       id="conector-chile-australia" /><path
       style="fill:none;stroke:#000000"
       d="m 481.5,232.5 -39,43.5 z"
       id="conector-groenlandia-nuevayork" /><path
       style="fill:none;stroke:#000000"
       d="m 504.5,237 38,27.5 v 0 z"
       id="conector-groenlandia-islandia" /><path
       style="fill:none;stroke:#000000"
       d="m 466,193.5 -25.5,26 z"
       id="conector-groenlandia-labrador" /><path
       style="fill:none;stroke:#000000"
       d="m 674.5,233.5 -87,38 z"
       id="conector-islandia-suecia" /><path
       style="fill:none;stroke:#000000"
       d="m 634,281.5 -44.5,4 z"
       id="conector-islandia-granbretania" /><path
       style="fill:none;stroke:#000000"
       d="m 667,275 44,7.5 z"
       id="conector-granbretania-alemania" /><path
       style="fill:none;stroke:#000000"
       d="m 583.05806,406.5 93.17938,18.96967 z"
       id="conector-brasil-sahara" /><path
       style="fill:none;stroke:#000000"
       d="M 654.5,385 685,413 Z"
       id="conector-sahara-espania" /><path
       style="fill:none;stroke:#000000"
       d="m 768,344 4,69 z"
       id="conector-polonia-egipto" /><path
       style="fill:none;stroke:#000000"
       d="m 784.5,350.5 -4,61 z"
       id="conector-egipto-turquia" /><path
       style="fill:none;stroke:#000000"
       d="m 803.5,379 9.5,33.125 z"
       id="conector-egipto-isabael" /><path
       style="fill:none;stroke:#000000"
       d="m 899,391.5 -4.75,13.75 z"
       id="conector-sumatra-india" /><path
       style="fill:none;stroke:#000000"
       d="m 940,405.75 1.5,23.75 z"
       id="conector-australia-borneo" /><path
       style="fill:none;stroke:#000000"
       d="M 903.75,442.25 917.5,458 Z"
       id="conector-australia-sumatra" /><path
       style="fill:none;stroke:#000000"
       d="m 968,401.75 8.5,33 z"
       id="conector-australia-java" /><path
       style="fill:none;stroke:#000000"
       d="m 947.5,348.75 -9.25,11.5 z"
       id="conector-malasia-borneo" /><path
       style="fill:none;stroke:#000000"
       d="m 910.25,171.75 32,-0.75 z"
       id="conector-alaska-kamchatka" /><path
       style="fill:none;stroke:#000000"
       d="m 964.4375,489.875 20.6875,0.4375 z"
       id="conector-australia-chile" /><path
       style="fill:none;stroke:#000000"
       d="M 950.5,260.1875 966.25,226.875 Z"
       id="conector-japon-china" /><path
       style="fill:none;stroke:#000000"
       d="m 915.625,184.5 14,8.375 z"
       id="conector-japon-kamchatka" /><path
       style="fill:none;stroke:#000000"
       d="m 237.25,201 c 2.5496,0.17044 3.46903,0.21369 5.18891,0.67468 3.78063,0.57541 4.05325,1.09183 6.03411,2.30476 1.03865,1.15376 1.72911,1.76636 1.68005,2.80132 0.19572,2.11299 -0.3414,4.1119 -1.074,6.3542 -2.09741,6.5604 -1.39712,4.60122 -2.21798,7.04877 -1.26543,3.87414 -1.57911,4.26159 -1.92988,5.91768 -0.24821,0.84672 -0.35675,0.5576 -0.30623,1.461"
       id="connector-kamchatka-alaska" /><path
       style="fill:#ffdd55;stroke:#000000"
       d="m 827.22655,452.72512 c 15.20279,8.22011 15.20279,8.22011 15.20279,8.22011 z"
       id="Egiptoo" /><path
       style="fill:none;stroke:#000000"
       d="m 837.52379,522.04368 c -9.07719,14.50319 -27.45058,24.8597 -44.21835,25.11314 -15.65392,0.37701 -31.56302,-8.37749 -40.55396,-21.6388 -4.03121,-5.82602 -10.731,-15.77312 -9.14044,-22.76508"
       id="zaireee" /></g></svg>
